<svg id="Layer_1" data-name="Layer 1" xmlns="http://www.w3.org/2000/svg" viewBox="0 0 919.61 165.47"><defs><style>.cls-1{fill:#fff;}</style></defs><path class="cls-1" d="M104.41,39.55A71,71,0,0,0,70.24,171a2.49,2.49,0,1,0,2.61-4.23,66,66,0,1,1,68,.44,2.48,2.48,0,0,0,2.56,4.25,71,71,0,0,0-39-131.93Z" transform="translate(-8.9 -13.91)"/><rect class="cls-1" y="84.68" width="17.49" height="4.97" rx="2.48"/><rect class="cls-1" x="178.61" y="84.68" width="17.49" height="4.97" rx="2.48"/><path class="cls-1" d="M34,59,23.91,51.64a2.48,2.48,0,0,0-3.47.54h0A2.48,2.48,0,0,0,21,55.65L31.09,63a2.48,2.48,0,0,0,3.47-.54h0A2.48,2.48,0,0,0,34,59Z" transform="translate(-8.9 -13.91)"/><path class="cls-1" d="M62.67,38.1A2.49,2.49,0,0,0,66,39.24h0a2.49,2.49,0,0,0,1.14-3.32L61.62,24.67a2.49,2.49,0,0,0-3.32-1.14h0a2.49,2.49,0,0,0-1.14,3.32Z" transform="translate(-8.9 -13.91)"/><path class="cls-1" d="M108.58,31.38a2.48,2.48,0,0,0,2.36-2.6l-.59-12.51a2.48,2.48,0,0,0-5,.24L106,29A2.48,2.48,0,0,0,108.58,31.38Z" transform="translate(-8.9 -13.91)"/><path class="cls-1" d="M146,39.14a2.49,2.49,0,0,0,3.09-1.67l3.58-12A2.48,2.48,0,0,0,147.94,24l-3.58,12A2.49,2.49,0,0,0,146,39.14Z" transform="translate(-8.9 -13.91)"/><path class="cls-1" d="M191.21,49h0a2.48,2.48,0,0,0-3.51-.12l-9.16,8.54a2.48,2.48,0,0,0,3.39,3.63l9.16-8.54A2.48,2.48,0,0,0,191.21,49Z" transform="translate(-8.9 -13.91)"/><path class="cls-1" d="M156,91.32l-.24-1.41-1.41-.22c-13.1-2.07-22.92.15-29.21,6.57-9.43,9.63-7.42,25.21-7,27.64l-8.91,8.88V105.13c10.3-6.23,15.55-13.77,15.6-22.42.07-14.31-14.5-26.48-16.57-27.71L107,54.28l-1.07.9c-10.7,8.9-15.79,18.12-15.14,27.4.84,12.11,11.19,20.24,14.42,22.49v41.71l-6.4-6.27h0l.27-1.16c.13-.56,3.06-13.87-4.83-22.68-5.33-6-14.17-8.28-26.25-6.9l-1.48.17-.25,1.47c-.13.72-3,17.91,6.5,26.52,3.42,3.1,7.94,4.65,13.5,4.65a38.69,38.69,0,0,0,8-.92l10.06,9.86.85,1.08v11.69h-4.7a2,2,0,0,0,0,4H114a2,2,0,0,0,0-4H109.2V138.39l12.27-12.22a49.32,49.32,0,0,0,9.57,1c7.26,0,13.07-2,17.37-6.1C159.15,110.94,156.14,92.12,156,91.32ZM109.2,60.94a44.69,44.69,0,0,1,9.19,12.13l-9.19,4.38Zm0,20.91,10.68-5.08a19.49,19.49,0,0,1,.94,5.92c0,.27,0,.54,0,.81L109.2,90.22Zm0,13,10.43-6c-1.7,4.22-5.18,8.12-10.43,11.65ZM82.55,114.28l-.74,9.56L71.23,113.47A35.9,35.9,0,0,1,82.55,114.28ZM69.8,117.63l4.84,4.74H70A39.88,39.88,0,0,1,69.8,117.63Zm2.72,13.5a20.86,20.86,0,0,1-1.79-4.78h8L83,130.54l-10.46.24Zm3,3.86-.3-.29,11.74-.28,3.9,3.83C84.14,139.23,79,138.14,75.5,135Zm13.39-4.22-3.38-3.31.92-11.78A15.77,15.77,0,0,1,91,118.94Zm6.58,6.44-3.14-3.07,1.82-10.29C96.28,129,95.82,134.75,95.47,137.21Zm9.76-37.15c-3.8-3.17-9.88-9.48-10.46-17.76q0-.45,0-.9l10.49,9.4Zm0-14.6-10-8.91A23.94,23.94,0,0,1,98,70.06l7.27,6.24Zm0-14.4-5-4.32a47.28,47.28,0,0,1,5-5.6Zm43.83,22-6.43,6.41L142.38,93A42.62,42.62,0,0,1,149.06,93.06Zm3.36,2.26c.22,3.74.15,10-2,15.63l-9.91-3.73Zm-14-1.71.38,9.68-6.35,6.32-.35-13.69A22.07,22.07,0,0,1,138.42,93.61ZM128,99l.21-.2.38,14.64-6.84,6.81C121.43,115.25,121.77,105.39,128,99Zm-3.07,23.69,3.62-3.61L137,122.6A33.9,33.9,0,0,1,124.92,122.73Zm17.5-2.13,0-.06-10.85-4.46,5.8-5.78,11.24,4.23a17.48,17.48,0,0,1-2.95,3.67A16.83,16.83,0,0,1,142.42,120.6Z" transform="translate(-8.9 -13.91)"/><path class="cls-1" d="M122,170H93a2.37,2.37,0,0,0,0,4.68h29a2.37,2.37,0,0,0,0-4.68Z" transform="translate(-8.9 -13.91)"/><path class="cls-1" d="M302.13,145.69a27.76,27.76,0,0,1,.93,4.15,2.85,2.85,0,0,1-.49,2.29,3.71,3.71,0,0,1-2.42.94,45.48,45.48,0,0,1-4.77.19c-2.11,0-3.75,0-4.93-.11a10.57,10.57,0,0,1-2.69-.44,2.46,2.46,0,0,1-1.31-.91,5.84,5.84,0,0,1-.62-1.53l-5.39-18.92H250.32l-5.08,18.41a6.17,6.17,0,0,1-.65,1.71,2.76,2.76,0,0,1-1.3,1.1,8.6,8.6,0,0,1-2.54.54c-1.09.1-2.53.15-4.31.15A36.23,36.23,0,0,1,232,153a3.18,3.18,0,0,1-2.23-1.06,3.23,3.23,0,0,1-.43-2.37,26.35,26.35,0,0,1,.93-4.07L255,62a8,8,0,0,1,.87-2,3.14,3.14,0,0,1,1.58-1.16,10.5,10.5,0,0,1,3-.51c1.28-.07,3-.11,5.08-.11,2.44,0,4.38,0,5.82.11a13.11,13.11,0,0,1,3.38.51,3.18,3.18,0,0,1,1.73,1.2,7.23,7.23,0,0,1,.9,2.18ZM265.32,76.62h-.06l-11.34,40h22.74Z" transform="translate(-8.9 -13.91)"/><path class="cls-1" d="M362.24,89.94a14.72,14.72,0,0,1-.68,5.17c-.46,1.11-1,1.67-1.67,1.67h-6.51a10.92,10.92,0,0,1,1.95,4,18.06,18.06,0,0,1,.59,4.62,29.36,29.36,0,0,1-1.61,10.08,20.19,20.19,0,0,1-4.62,7.42,19.51,19.51,0,0,1-7.25,4.58A27,27,0,0,1,333,129a16.75,16.75,0,0,1-5.08-.76,11.94,11.94,0,0,1-3.72-1.79,11,11,0,0,0-1.33,2.26,7,7,0,0,0-.59,2.91,4.35,4.35,0,0,0,1.58,3.46,7.28,7.28,0,0,0,4.43,1.49l13.45.58a28.33,28.33,0,0,1,8.4,1.57,17.35,17.35,0,0,1,6.19,3.78,16.43,16.43,0,0,1,3.85,5.86,21.53,21.53,0,0,1,1.33,7.79,23,23,0,0,1-1.8,9.06,20.1,20.1,0,0,1-5.39,7.38,26.18,26.18,0,0,1-9,4.95,39.66,39.66,0,0,1-12.67,1.82,48.13,48.13,0,0,1-12.05-1.31,23.91,23.91,0,0,1-8.18-3.64,14,14,0,0,1-4.65-5.56,17.15,17.15,0,0,1-1.46-7.1,19.63,19.63,0,0,1,.53-4.59,18.93,18.93,0,0,1,1.55-4.18,21.13,21.13,0,0,1,2.51-3.82,28.66,28.66,0,0,1,3.41-3.49,11.25,11.25,0,0,1-4.12-4.55,13.65,13.65,0,0,1-1.46-6.3,18.09,18.09,0,0,1,1.67-7.82,24.77,24.77,0,0,1,4.34-6.37,19.84,19.84,0,0,1-3.47-6.11,26.1,26.1,0,0,1-1.3-8.88,28.46,28.46,0,0,1,1.7-10.15,21.67,21.67,0,0,1,4.74-7.57,20.4,20.4,0,0,1,7.25-4.73,25.51,25.51,0,0,1,9.3-1.64,32.18,32.18,0,0,1,5,.37,29.13,29.13,0,0,1,4.43,1h17.54c.7,0,1.27.54,1.7,1.6A15.88,15.88,0,0,1,362.24,89.94Zm-16.36,67.17a6,6,0,0,0-2.23-5,10.42,10.42,0,0,0-6.14-1.89l-11.09-.36a17.44,17.44,0,0,0-2.57,2.65,16,16,0,0,0-1.55,2.44,7.91,7.91,0,0,0-.77,2.25,12.93,12.93,0,0,0-.19,2.26,6.07,6.07,0,0,0,3.13,5.53q3.13,1.91,8.83,1.9a18.53,18.53,0,0,0,5.95-.84,10.91,10.91,0,0,0,3.9-2.22,7.88,7.88,0,0,0,2.11-3.09A10.62,10.62,0,0,0,345.88,157.11Zm-3.66-51.82c0-3.49-.82-6.2-2.47-8.15a8.71,8.71,0,0,0-7-2.9,8.6,8.6,0,0,0-4,.9,8.44,8.44,0,0,0-2.89,2.48,10.81,10.81,0,0,0-1.7,3.64,16.63,16.63,0,0,0-.56,4.33,11.59,11.59,0,0,0,2.48,7.82,8.59,8.59,0,0,0,6.88,2.87,9,9,0,0,0,4.09-.87,8,8,0,0,0,2.88-2.4,11.09,11.09,0,0,0,1.74-3.53A14.83,14.83,0,0,0,342.22,105.29Z" transform="translate(-8.9 -13.91)"/><path class="cls-1" d="M408.1,91.47c0,1.75,0,3.18-.13,4.29a14.57,14.57,0,0,1-.37,2.62,2.61,2.61,0,0,1-.65,1.31,1.49,1.49,0,0,1-1,.37,3,3,0,0,1-1.12-.26c-.41-.17-.87-.35-1.39-.54s-1.09-.38-1.7-.55a7.77,7.77,0,0,0-2.05-.26,5.92,5.92,0,0,0-2.6.63,10.52,10.52,0,0,0-2.7,1.92,21.79,21.79,0,0,0-2.91,3.5,56.52,56.52,0,0,0-3.25,5.38v40.46a2.2,2.2,0,0,1-.38,1.28,2.68,2.68,0,0,1-1.27.91,9.69,9.69,0,0,1-2.38.54,37.7,37.7,0,0,1-7.56,0,9.78,9.78,0,0,1-2.39-.54,2.73,2.73,0,0,1-1.27-.91,2.19,2.19,0,0,1-.37-1.28V85.43a2.53,2.53,0,0,1,.31-1.28,2.35,2.35,0,0,1,1.11-.9,7.5,7.5,0,0,1,2.08-.55,23.42,23.42,0,0,1,3.19-.18,24.83,24.83,0,0,1,3.29.18,6.21,6.21,0,0,1,2,.55,2.28,2.28,0,0,1,1,.9,2.53,2.53,0,0,1,.31,1.28v8.08a51.88,51.88,0,0,1,4.09-6,25.26,25.26,0,0,1,3.66-3.75,10.76,10.76,0,0,1,3.47-1.92,11.33,11.33,0,0,1,3.47-.55,15.31,15.31,0,0,1,1.73.11,14.13,14.13,0,0,1,1.93.36,10.88,10.88,0,0,1,1.73.59,3.1,3.1,0,0,1,1.09.69,2.31,2.31,0,0,1,.49.8,7.18,7.18,0,0,1,.28,1.2c.08.51.14,1.27.19,2.29S408.1,89.72,408.1,91.47Z" transform="translate(-8.9 -13.91)"/><path class="cls-1" d="M434.5,63.45q0,5.53-1.92,7.64t-7.13,2.11c-3.51,0-5.88-.68-7.09-2s-1.83-3.8-1.83-7.35.63-6.24,1.89-7.68S422.06,54,425.57,54s5.83.69,7.07,2.07S434.5,59.91,434.5,63.45Zm-1.18,86.89a2.19,2.19,0,0,1-.37,1.28,2.73,2.73,0,0,1-1.27.91,9.78,9.78,0,0,1-2.39.54,37.7,37.7,0,0,1-7.56,0,9.58,9.58,0,0,1-2.38-.54,2.68,2.68,0,0,1-1.27-.91,2.2,2.2,0,0,1-.38-1.28V85.57a2.19,2.19,0,0,1,.38-1.27,2.85,2.85,0,0,1,1.27-.94,9.19,9.19,0,0,1,2.38-.63,34.13,34.13,0,0,1,7.56,0,9.39,9.39,0,0,1,2.39.63,2.91,2.91,0,0,1,1.27.94,2.18,2.18,0,0,1,.37,1.27Z" transform="translate(-8.9 -13.91)"/><path class="cls-1" d="M562.9,147.94a8.94,8.94,0,0,1-1,2.8,4,4,0,0,1-2,1.6,11.07,11.07,0,0,1-3.34.73c-1.37.13-3.1.19-5.21.19-2.35,0-4.24-.06-5.67-.19a10.67,10.67,0,0,1-3.38-.73,3.59,3.59,0,0,1-1.8-1.6,9.78,9.78,0,0,1-.86-2.8L526.83,88.27h-.12l-12.15,59.67a9.76,9.76,0,0,1-.86,2.73,3.88,3.88,0,0,1-1.77,1.64,9.61,9.61,0,0,1-3.29.76c-1.38.13-3.21.19-5.48.19s-4.31-.06-5.73-.19a10.67,10.67,0,0,1-3.38-.73,3.51,3.51,0,0,1-1.8-1.6,11,11,0,0,1-.93-2.8L473.1,65.78a27.81,27.81,0,0,1-.62-4.11,3,3,0,0,1,.72-2.3,4.07,4.07,0,0,1,2.54-1q1.77-.18,4.92-.18c1.94,0,3.48,0,4.62.11a7.4,7.4,0,0,1,2.57.51A2.23,2.23,0,0,1,489,60a9.38,9.38,0,0,1,.5,2.15l14.06,72.12h.06l14.63-71.61a9.19,9.19,0,0,1,.65-2.26,2.77,2.77,0,0,1,1.36-1.34,8.23,8.23,0,0,1,2.64-.66,43.57,43.57,0,0,1,4.46-.18q3,0,4.74.15a7.84,7.84,0,0,1,2.73.61,3,3,0,0,1,1.39,1.35,8.34,8.34,0,0,1,.68,2.33l15.12,71.61h.12l14.07-71.9a10.59,10.59,0,0,1,.5-2,2.44,2.44,0,0,1,1.17-1.31,7,7,0,0,1,2.48-.66,43.48,43.48,0,0,1,4.53-.18,38.16,38.16,0,0,1,4.24.18,3.31,3.31,0,0,1,2.2,1,3.22,3.22,0,0,1,.59,2.37A30.13,30.13,0,0,1,581.3,66Z" transform="translate(-8.9 -13.91)"/><path class="cls-1" d="M639.12,116a7.89,7.89,0,0,1-1.27,5,4.21,4.21,0,0,1-3.5,1.6H600.7a31.89,31.89,0,0,0,.83,7.54,15.35,15.35,0,0,0,2.67,5.75,11.75,11.75,0,0,0,4.71,3.6,17.52,17.52,0,0,0,6.91,1.24A34.06,34.06,0,0,0,623,140a41.66,41.66,0,0,0,5.36-1.54c1.5-.55,2.75-1.06,3.74-1.52a6.17,6.17,0,0,1,2.42-.69,1.61,1.61,0,0,1,.93.25,1.85,1.85,0,0,1,.62.91,6.73,6.73,0,0,1,.34,1.86c.06.79.09,1.81.09,3,0,1.06,0,2,0,2.73s-.11,1.39-.19,1.92a4.84,4.84,0,0,1-1,2.4,7.45,7.45,0,0,1-2.21,1.39,31.24,31.24,0,0,1-4.58,1.71,56.06,56.06,0,0,1-6.38,1.45,44.62,44.62,0,0,1-7.69.62,35.25,35.25,0,0,1-12.92-2.18,22.81,22.81,0,0,1-9.26-6.62,29,29,0,0,1-5.55-11.21,61.17,61.17,0,0,1-1.83-15.87A58.26,58.26,0,0,1,586.76,103a34.33,34.33,0,0,1,5.57-11.78,24.35,24.35,0,0,1,8.89-7.39,29.56,29.56,0,0,1,23.68-.15A21.72,21.72,0,0,1,633,90.34a28.52,28.52,0,0,1,4.65,10.08,51.11,51.11,0,0,1,1.49,12.66ZM624,110.75q.18-7.71-2.64-12.11t-8.7-4.4a10,10,0,0,0-5.18,1.3,11.21,11.21,0,0,0-3.65,3.54,17.06,17.06,0,0,0-2.23,5.23,30,30,0,0,0-.9,6.44Z" transform="translate(-8.9 -13.91)"/><path class="cls-1" d="M689.38,145.32a30.32,30.32,0,0,1-.19,3.6,11.06,11.06,0,0,1-.5,2.37,2.28,2.28,0,0,1-.8,1.2,2,2,0,0,1-1.12.33H650.65a3,3,0,0,1-2.58-1.31,7.92,7.92,0,0,1-.89-4.3v-3.34c0-.88,0-1.66.09-2.37a10.63,10.63,0,0,1,.37-2,14.85,14.85,0,0,1,.74-2,23.52,23.52,0,0,1,1.21-2.25l20.7-37.55H650.71c-.79,0-1.42-.59-1.89-1.75a15.93,15.93,0,0,1-.71-5.61,34.32,34.32,0,0,1,.15-3.52,9.4,9.4,0,0,1,.47-2.26,2.46,2.46,0,0,1,.8-1.2,2,2,0,0,1,1.18-.37h33.77a4.64,4.64,0,0,1,1.49.22,2.09,2.09,0,0,1,1,.8,4.53,4.53,0,0,1,.62,1.6,12.86,12.86,0,0,1,.22,2.55v3.57a24.59,24.59,0,0,1-.12,2.58,17.48,17.48,0,0,1-.38,2.15,10.91,10.91,0,0,1-.71,2c-.31.69-.67,1.41-1.09,2.19L665,138.12h21.81a2.09,2.09,0,0,1,1.06.29,2.16,2.16,0,0,1,.83,1.09,8.5,8.5,0,0,1,.53,2.22A29.35,29.35,0,0,1,689.38,145.32Z" transform="translate(-8.9 -13.91)"/><path class="cls-1" d="M749.86,116a8,8,0,0,1-1.27,5,4.23,4.23,0,0,1-3.5,1.6H711.44a31.89,31.89,0,0,0,.83,7.54,15.35,15.35,0,0,0,2.67,5.75,11.75,11.75,0,0,0,4.71,3.6,17.52,17.52,0,0,0,6.91,1.24,34.06,34.06,0,0,0,7.19-.69,41,41,0,0,0,5.35-1.54c1.51-.55,2.76-1.06,3.75-1.52a6.17,6.17,0,0,1,2.42-.69,1.61,1.61,0,0,1,.93.25,1.92,1.92,0,0,1,.62.91,6.73,6.73,0,0,1,.34,1.86c.06.79.09,1.81.09,3q0,1.59-.06,2.73t-.18,1.92a4.84,4.84,0,0,1-1,2.4,7.45,7.45,0,0,1-2.21,1.39,31.24,31.24,0,0,1-4.58,1.71,56.06,56.06,0,0,1-6.38,1.45,44.62,44.62,0,0,1-7.69.62,35.25,35.25,0,0,1-12.92-2.18,22.74,22.74,0,0,1-9.26-6.62,29,29,0,0,1-5.55-11.21,61.17,61.17,0,0,1-1.83-15.87A58.26,58.26,0,0,1,697.5,103a34.33,34.33,0,0,1,5.57-11.78A24.35,24.35,0,0,1,712,83.83a29.53,29.53,0,0,1,23.67-.15,21.68,21.68,0,0,1,8.09,6.66,28.52,28.52,0,0,1,4.65,10.08,51.11,51.11,0,0,1,1.49,12.66Zm-15.12-5.24q.18-7.71-2.64-12.11t-8.7-4.4a10,10,0,0,0-5.18,1.3,11.11,11.11,0,0,0-3.65,3.54,16.82,16.82,0,0,0-2.23,5.23,30,30,0,0,0-.9,6.44Z" transform="translate(-8.9 -13.91)"/><path class="cls-1" d="M801.6,132a25.1,25.1,0,0,1-1.77,9.76,19,19,0,0,1-5,7.06,21.2,21.2,0,0,1-7.62,4.25,30.88,30.88,0,0,1-9.55,1.42,31.41,31.41,0,0,1-5.92-.54,33,33,0,0,1-5-1.38,23.94,23.94,0,0,1-3.72-1.72,9,9,0,0,1-2.16-1.63,5.43,5.43,0,0,1-1.06-2.4,23.44,23.44,0,0,1-.37-4.84q0-2.11.12-3.39a10.08,10.08,0,0,1,.38-2,1.81,1.81,0,0,1,.62-1,1.54,1.54,0,0,1,.92-.26,4.18,4.18,0,0,1,2,.91c.89.61,2,1.27,3.31,2a32.52,32.52,0,0,0,4.62,2,17.66,17.66,0,0,0,6,.94,12.66,12.66,0,0,0,3.75-.5,8.72,8.72,0,0,0,2.85-1.46,5.89,5.89,0,0,0,1.83-2.4,8.55,8.55,0,0,0,.62-3.35,6.14,6.14,0,0,0-1.15-3.75,10.72,10.72,0,0,0-3-2.73A33.43,33.43,0,0,0,778,124.8q-2.38-1-4.9-2.26a43,43,0,0,1-4.89-2.83,19.62,19.62,0,0,1-4.28-3.93,18.44,18.44,0,0,1-3-5.61,23.7,23.7,0,0,1-1.15-7.86,22.82,22.82,0,0,1,1.55-8.55,18.47,18.47,0,0,1,4.46-6.66,20.3,20.3,0,0,1,7.1-4.29,27.2,27.2,0,0,1,9.39-1.53,28.92,28.92,0,0,1,5,.43,33,33,0,0,1,4.43,1.1A19.47,19.47,0,0,1,795,84.23a10.34,10.34,0,0,1,2,1.31,3.24,3.24,0,0,1,.84,1.09,5.24,5.24,0,0,1,.37,1.31c.09.51.16,1.14.22,1.89s.09,1.69.09,2.8q0,2-.09,3.21a9.13,9.13,0,0,1-.31,2,1.7,1.7,0,0,1-.59,1,1.51,1.51,0,0,1-.87.26,3.84,3.84,0,0,1-1.73-.77A29.55,29.55,0,0,0,792,96.64,30,30,0,0,0,787.87,95a16.84,16.84,0,0,0-5.29-.76,11.73,11.73,0,0,0-3.66.5,6.63,6.63,0,0,0-2.54,1.46,6.08,6.08,0,0,0-1.49,2.22,7.47,7.47,0,0,0-.49,2.73,6,6,0,0,0,1.18,3.78,10.91,10.91,0,0,0,3.09,2.69,32.34,32.34,0,0,0,4.37,2.19c1.63.68,3.29,1.42,5,2.22a43.32,43.32,0,0,1,5,2.8,19.82,19.82,0,0,1,4.37,3.93,18.78,18.78,0,0,1,3.09,5.57A22.36,22.36,0,0,1,801.6,132Z" transform="translate(-8.9 -13.91)"/><path class="cls-1" d="M866.11,150.34a2.19,2.19,0,0,1-.37,1.28,2.73,2.73,0,0,1-1.24.91,9.26,9.26,0,0,1-2.38.54,30.47,30.47,0,0,1-3.75.19,31.15,31.15,0,0,1-3.82-.19,9.26,9.26,0,0,1-2.38-.54,2.73,2.73,0,0,1-1.24-.91,2.19,2.19,0,0,1-.37-1.28v-37a36.63,36.63,0,0,0-.59-7.42,16,16,0,0,0-1.7-4.62,8.22,8.22,0,0,0-2.89-3,7.89,7.89,0,0,0-4.12-1,9.4,9.4,0,0,0-6,2.55,36,36,0,0,0-6.32,7.42v43.15a2.19,2.19,0,0,1-.37,1.28,2.73,2.73,0,0,1-1.27.91,9.67,9.67,0,0,1-2.39.54,37.7,37.7,0,0,1-7.56,0,9.58,9.58,0,0,1-2.38-.54,2.68,2.68,0,0,1-1.27-.91,2.2,2.2,0,0,1-.38-1.28V54.64a2.33,2.33,0,0,1,.38-1.3,2.77,2.77,0,0,1,1.27-1,9.22,9.22,0,0,1,2.38-.62,32.58,32.58,0,0,1,7.56,0,9.31,9.31,0,0,1,2.39.62,2.82,2.82,0,0,1,1.27,1,2.32,2.32,0,0,1,.37,1.3V90.52a30.65,30.65,0,0,1,8.21-7,17.86,17.86,0,0,1,8.71-2.29,19.16,19.16,0,0,1,9.51,2.18,17.47,17.47,0,0,1,6.26,6,26.63,26.63,0,0,1,3.44,8.84,61.42,61.42,0,0,1,1.05,12.27Z" transform="translate(-8.9 -13.91)"/><path class="cls-1" d="M928.51,150.56a2.05,2.05,0,0,1-.62,1.6,3.85,3.85,0,0,1-1.95.84,22.45,22.45,0,0,1-3.93.26A22.73,22.73,0,0,1,918,153a3.22,3.22,0,0,1-1.8-.84,2.29,2.29,0,0,1-.53-1.6V145.4a25.78,25.78,0,0,1-7.77,6.69,19.84,19.84,0,0,1-9.7,2.4,23.59,23.59,0,0,1-8.09-1.34,17.47,17.47,0,0,1-6.38-4,18,18,0,0,1-4.18-6.58,25.67,25.67,0,0,1-1.49-9.17,23.76,23.76,0,0,1,1.89-9.86,17.17,17.17,0,0,1,5.64-6.92,25.77,25.77,0,0,1,9.32-4,57.27,57.27,0,0,1,12.95-1.31h5.4v-3.93a24.14,24.14,0,0,0-.53-5.35,9.42,9.42,0,0,0-1.74-3.82,6.93,6.93,0,0,0-3.22-2.25,14.63,14.63,0,0,0-5-.73,22.09,22.09,0,0,0-7,1,37.06,37.06,0,0,0-5.42,2.25q-2.36,1.24-3.93,2.26a5.23,5.23,0,0,1-2.58,1,1.68,1.68,0,0,1-1.2-.51,3.57,3.57,0,0,1-.87-1.45,11,11,0,0,1-.53-2.34,23.52,23.52,0,0,1-.19-3.05,16.71,16.71,0,0,1,.31-3.57,5.78,5.78,0,0,1,1.18-2.36,11.72,11.72,0,0,1,3-2.33,33.12,33.12,0,0,1,5.08-2.37A43.27,43.27,0,0,1,897,82a36.07,36.07,0,0,1,7.1-.69,36.54,36.54,0,0,1,11.12,1.49,18,18,0,0,1,7.59,4.59,18.28,18.28,0,0,1,4.34,8,43.22,43.22,0,0,1,1.36,11.57Zm-15.3-27.8h-6a27.24,27.24,0,0,0-6.45.66,11.39,11.39,0,0,0-4.34,2,7.8,7.8,0,0,0-2.44,3.17,10.9,10.9,0,0,0-.78,4.26,9,9,0,0,0,2.2,6.4,8,8,0,0,0,6.11,2.33,10.19,10.19,0,0,0,6-2,26.71,26.71,0,0,0,5.61-5.74Z" transform="translate(-8.9 -13.91)"/></svg>