<?xml version="1.0" encoding="utf-8"?>
<!-- Generator: Adobe Illustrator 26.0.3, SVG Export Plug-In . SVG Version: 6.00 Build 0)  -->
<svg version="1.1" id="Layer_1" xmlns="http://www.w3.org/2000/svg" xmlns:xlink="http://www.w3.org/1999/xlink" x="0px" y="0px"
	 viewBox="0 0 533.3 541.9" style="enable-background:new 0 0 533.3 541.9;" xml:space="preserve">
<style type="text/css">
	.st0{fill:#6BA843;}
	.st1{fill:#395729;}
</style>
<g>
	<path class="st0" d="M259.7,69.7C160,73.6,79,154.1,74.5,253.8c-3.2,70.3,32.2,136.7,92.2,173.4c3.1,1.9,7.1,1.1,9.1-1.9l0,0
		c2.1-3.1,1.3-7.3-1.7-9.4c-0.1-0.1-0.2-0.1-0.3-0.2c-54.4-33.2-87.1-92.7-86-156.4c1.7-94.7,77.7-172.5,172.4-176.1
		c102.2-3.9,186.6,78.1,186.6,179.4c0,63.4-33.5,122-88,154.4c-3.1,1.8-4.2,5.8-2.5,9l0,0c1.8,3.3,5.9,4.5,9.2,2.8
		c0.1-0.1,0.2-0.1,0.3-0.2c58.6-34.8,94.5-97.8,94.5-165.9C460.3,153.6,369.6,65.5,259.7,69.7z"/>
	<path class="st0" d="M6.8,230.3h34.1c3.7,0,6.8,3,6.8,6.8l0,0c0,3.7-3,6.8-6.8,6.8H6.8c-3.7,0-6.8-3-6.8-6.8l0,0
		C0,233.3,3,230.3,6.8,230.3z"/>
	<path class="st0" d="M492.5,230.3h34.1c3.7,0,6.8,3,6.8,6.8l0,0c0,3.7-3,6.8-6.8,6.8h-34.1c-3.7,0-6.8-3-6.8-6.8l0,0
		C485.7,233.3,488.7,230.3,492.5,230.3z"/>
	<path class="st0" d="M31.8,103.8L31.8,103.8c2.2-3,6.4-3.7,9.5-1.5l27.6,20.1c3,2.2,3.7,6.4,1.5,9.4l0,0c-2.2,3-6.4,3.7-9.5,1.5
		l-27.6-20.1C30.3,111.1,29.6,106.9,31.8,103.8z"/>
	<path class="st0" d="M134.3,26.2L134.3,26.2c3.3-1.6,7.4-0.3,9,3.1l15,30.6c1.6,3.3,0.3,7.4-3.1,9l0,0c-3.3,1.6-7.4,0.3-9-3.1
		l-15-30.6C129.6,31.9,131,27.8,134.3,26.2z"/>
	<path class="st0" d="M268.8,0L268.8,0c3.7-0.2,6.9,2.7,7.1,6.4l1.6,34c0.2,3.7-2.7,6.9-6.4,7.1l0,0c-3.7,0.2-6.9-2.7-7.1-6.4
		l-1.6-34C262.2,3.4,265.1,0.2,268.8,0z"/>
	<path class="st0" d="M368.3,60.2l9.7-32.6c1.1-3.6,4.8-5.6,8.4-4.5l0,0c3.6,1.1,5.6,4.8,4.5,8.4l-9.7,32.6
		c-1.1,3.6-4.8,5.6-8.4,4.5l0,0C369.3,67.5,367.3,63.8,368.3,60.2z"/>
	<path class="st0" d="M461.3,118.4l24.9-23.2c2.7-2.5,7-2.4,9.5,0.3l0,0c2.5,2.7,2.4,7-0.3,9.5l-24.9,23.2c-2.7,2.5-7,2.4-9.5-0.3
		l0,0C458.4,125.2,458.6,120.9,461.3,118.4z"/>
	<path class="st0" d="M400,210.5l-0.6-3.8l-3.9-0.6c-35.6-5.6-62.3,0.4-79.4,17.9c-25.6,26.2-20.2,68.6-19.1,75.2l-24.2,24.2v-75.2
		c28-17,42.3-37.5,42.4-61c0.2-38.9-39.4-72-45.1-75.4l-3.3-1.9l-2.9,2.5c-29.1,24.2-42.9,49.3-41.2,74.5
		c2.3,32.9,30.5,55,39.2,61.2v113.3l-17.4-17h0.1l0.7-3.1c0.4-1.5,8.3-37.7-13.1-61.7c-14.5-16.2-38.5-22.5-71.4-18.8l-4,0.5l-0.7,4
		c-0.4,2-8.2,48.7,17.7,72.1c9.3,8.4,21.6,12.6,36.7,12.6c7.3-0.1,14.6-0.9,21.8-2.5l27.4,26.8l2.3,2.9V409h-12.8
		c-3,0-5.4,2.4-5.4,5.4c0,3,2.4,5.4,5.4,5.4h36.5c3,0,5.4-2.4,5.4-5.4c0-3-2.4-5.4-5.4-5.4c0,0,0,0,0,0h-13v-70.5l33.4-33.2
		c8.6,1.8,17.3,2.7,26,2.8c19.7,0,35.5-5.5,47.2-16.6C408.6,263.9,400.4,212.7,400,210.5z M272.7,127.9c7.5,7.1,18.2,19,25,33
		l-25,11.9V127.9z M272.7,184.8l29-13.8c1.7,5.2,2.6,10.6,2.6,16.1c0,0.7,0,1.5-0.1,2.2l-31.5,18.3L272.7,184.8z M272.7,220
		l28.4-16.4c-4.6,11.5-14.1,22.1-28.4,31.7V220z M200.3,272.9l-2,26l-28.8-28.2C181.3,270,191.5,270.7,200.3,272.9z M165.6,282.1
		l13.2,12.9h-12.5C165.8,290.7,165.5,286.4,165.6,282.1L165.6,282.1z M173,318.8c-2.2-4.1-3.8-8.5-4.9-13h21.7l11.6,11.4l-28.4,0.7
		L173,318.8z M181.1,329.3c-0.3-0.2-0.5-0.5-0.8-0.8l31.9-0.7l10.6,10.4C204.6,340.8,190.6,337.8,181.1,329.3z M217.5,317.9l-9.2-9
		l2.5-32.1c4.6,2.2,8.8,5.2,12.4,8.9L217.5,317.9z M235.4,335.3l-8.5-8.3l4.9-28C237.6,313.1,236.4,328.6,235.4,335.3z M261.9,234.3
		c-10.3-8.6-26.9-25.8-28.5-48.3c-0.1-0.8-0.1-1.6-0.1-2.5l28.5,25.6V234.3z M261.9,194.6l-27.1-24.3c1.6-6.2,4-12.1,7.3-17.6
		l19.8,17V194.6z M261.9,155.5l-13.7-11.8c4.2-5.4,8.7-10.5,13.7-15.2V155.5z M381.1,215.3l-17.5,17.4l-0.7-17.5
		C369,214.8,375.1,214.8,381.1,215.3z M336,260.3l-1-37.2c5.4-2.9,11.2-5.1,17.2-6.3l1,26.3L336,260.3z M323.8,231.6
		c0.2-0.2,0.4-0.4,0.6-0.5l1,39.8l-18.5,18.5C306,275.6,306.9,248.8,323.8,231.6L323.8,231.6z M315.5,296l9.8-9.8l23,9.5
		C338.9,297.7,328,297.8,315.5,296L315.5,296z M371.9,283.7c-2.7,2.5-5.7,4.7-8.9,6.5l0.1-0.2l-29.5-12.1l15.8-15.7l30.6,11.5
		C377.7,277.3,375,280.7,371.9,283.7L371.9,283.7z M384.7,263.9l-26.9-10.1l32.5-32.4C390.9,231.6,390.7,248.6,384.7,263.9
		L384.7,263.9z"/>
	<path class="st0" d="M307.4,437.3h-78.8c-3,0-5.4-2.9-5.4-6.4l0,0c0-3.5,2.4-6.4,5.4-6.4h78.8c3,0,5.4,2.9,5.4,6.4l0,0
		C312.9,434.4,310.4,437.3,307.4,437.3z"/>
</g>
<g>
	<path class="st1" d="M130.9,526.6c0.2,0.6,0.4,1.2,0.5,1.9c0.1,0.4,0,0.7-0.3,1c-0.4,0.3-0.8,0.4-1.3,0.4c-0.6,0.1-1.5,0.1-2.5,0.1
		c-1.1,0-2,0-2.6,0c-0.5,0-1-0.1-1.4-0.2c-0.3-0.1-0.5-0.2-0.7-0.4c-0.2-0.2-0.3-0.4-0.3-0.7l-2.9-8.6h-16.1l-2.7,8.4
		c-0.1,0.3-0.2,0.5-0.4,0.8c-0.2,0.2-0.4,0.4-0.7,0.5c-0.4,0.1-0.9,0.2-1.3,0.2c-0.6,0-1.4,0.1-2.3,0.1c-0.8,0-1.6,0-2.4-0.1
		c-0.4,0-0.9-0.2-1.2-0.5c-0.2-0.3-0.3-0.7-0.2-1.1c0.1-0.6,0.3-1.2,0.5-1.8l13.2-38c0.1-0.3,0.3-0.6,0.5-0.9
		c0.2-0.3,0.5-0.4,0.8-0.5c0.5-0.1,1.1-0.2,1.6-0.2c0.7,0,1.6,0,2.7,0c1.3,0,2.3,0,3.1,0c0.6,0,1.2,0.1,1.8,0.2
		c0.4,0.1,0.7,0.3,0.9,0.5c0.2,0.3,0.4,0.6,0.5,1L130.9,526.6z M111.2,495.2L111.2,495.2l-6.1,18.2h12.1L111.2,495.2z"/>
	<path class="st1" d="M163,501.2c0,0.8-0.1,1.6-0.4,2.3c-0.2,0.5-0.5,0.8-0.9,0.8h-3.5c0.5,0.5,0.8,1.1,1,1.8
		c0.2,0.7,0.3,1.4,0.3,2.1c0,1.6-0.3,3.1-0.9,4.6c-0.5,1.3-1.4,2.5-2.5,3.4c-1.1,0.9-2.5,1.7-3.9,2.1c-1.6,0.5-3.3,0.7-5.1,0.7
		c-0.9,0-1.8-0.1-2.7-0.3c-0.7-0.2-1.4-0.4-2-0.8c-0.3,0.3-0.5,0.6-0.7,1c-0.2,0.4-0.3,0.9-0.3,1.3c0,0.6,0.3,1.2,0.8,1.6
		c0.7,0.4,1.5,0.7,2.4,0.7l7.2,0.3c1.5,0,3,0.3,4.5,0.7c1.2,0.4,2.3,0.9,3.3,1.7c0.9,0.7,1.6,1.6,2.1,2.7c0.5,1.1,0.7,2.3,0.7,3.5
		c0,1.4-0.3,2.8-1,4.1c-0.7,1.3-1.7,2.5-2.9,3.4c-1.5,1-3.1,1.8-4.8,2.2c-2.2,0.6-4.5,0.9-6.8,0.8c-2.2,0-4.3-0.2-6.4-0.6
		c-1.5-0.3-3-0.9-4.4-1.7c-1-0.6-1.9-1.5-2.5-2.5c-0.5-1-0.8-2.1-0.8-3.2c0-0.7,0.1-1.4,0.3-2.1c0.2-0.7,0.5-1.3,0.8-1.9
		c0.4-0.6,0.8-1.2,1.3-1.7c0.6-0.6,1.2-1.1,1.8-1.6c-1.8-0.9-3-2.9-3-4.9c0-1.2,0.3-2.5,0.9-3.6c0.6-1.1,1.4-2.1,2.3-2.9
		c-0.8-0.8-1.4-1.7-1.9-2.8c-0.5-1.3-0.7-2.6-0.7-4c0-1.6,0.3-3.2,0.9-4.6c0.6-1.3,1.4-2.5,2.5-3.4c1.1-1,2.5-1.7,3.9-2.2
		c1.6-0.5,3.3-0.8,5-0.8c0.9,0,1.8,0.1,2.7,0.2c0.8,0.1,1.6,0.3,2.4,0.5h9.4c0.4,0,0.7,0.2,0.9,0.7C162.9,499.6,163,500.4,163,501.2
		z M154.3,531.8c0-0.9-0.4-1.8-1.2-2.3c-1-0.6-2.1-0.9-3.3-0.9l-5.9-0.2c-0.5,0.4-1,0.8-1.4,1.2c-0.3,0.3-0.6,0.7-0.8,1.1
		c-0.2,0.3-0.3,0.6-0.4,1c-0.1,0.3-0.1,0.7-0.1,1c0,1.1,0.7,2.1,1.7,2.5c1.5,0.7,3.1,1,4.7,0.9c1.1,0,2.1-0.1,3.2-0.4
		c0.8-0.2,1.5-0.5,2.1-1c0.5-0.4,0.9-0.8,1.1-1.4C154.1,532.9,154.2,532.3,154.3,531.8z M152.3,508.2c0.2-2.5-1.6-4.8-4.2-5
		c-0.3,0-0.6,0-0.9,0c-0.7,0-1.5,0.1-2.1,0.4c-0.6,0.3-1.1,0.6-1.5,1.1c-0.4,0.5-0.7,1.1-0.9,1.7c-0.2,0.6-0.3,1.3-0.3,2
		c-0.1,1.3,0.4,2.6,1.3,3.6c1,0.9,2.3,1.4,3.7,1.3c0.7,0,1.5-0.1,2.2-0.4c0.6-0.2,1.1-0.6,1.5-1.1c0.4-0.5,0.7-1,0.9-1.6
		C152.2,509.5,152.3,508.9,152.3,508.2L152.3,508.2z"/>
	<path class="st1" d="M187.5,501.9c0,0.8,0,1.5-0.1,2c0,0.4-0.1,0.8-0.2,1.2c-0.1,0.2-0.2,0.4-0.4,0.6c-0.2,0.1-0.4,0.2-0.6,0.2
		c-0.2,0-0.4,0-0.6-0.1l-0.8-0.2c-0.3-0.1-0.6-0.2-0.9-0.2c-0.4-0.1-0.7-0.1-1.1-0.1c-0.5,0-0.9,0.1-1.4,0.3c-0.5,0.2-1,0.5-1.4,0.9
		c-0.6,0.5-1.1,1-1.6,1.6c-0.6,0.8-1.2,1.6-1.7,2.5v18.4c0,0.2-0.1,0.4-0.2,0.6c-0.2,0.2-0.4,0.3-0.7,0.4c-0.4,0.1-0.8,0.2-1.3,0.2
		c-0.7,0.1-1.3,0.1-2,0.1c-0.7,0-1.3,0-2-0.1c-0.4,0-0.9-0.1-1.3-0.2c-0.3-0.1-0.5-0.2-0.7-0.4c-0.1-0.2-0.2-0.4-0.2-0.6v-29.6
		c0-0.2,0-0.4,0.2-0.6c0.2-0.2,0.4-0.3,0.6-0.4c0.4-0.1,0.7-0.2,1.1-0.2c0.6-0.1,1.1-0.1,1.7-0.1c0.6,0,1.2,0,1.8,0.1
		c0.4,0,0.7,0.1,1.1,0.2c0.2,0.1,0.4,0.2,0.6,0.4c0.1,0.2,0.2,0.4,0.2,0.6v3.7c0.7-1,1.4-1.9,2.2-2.7c0.6-0.6,1.2-1.2,1.9-1.7
		c0.6-0.4,1.2-0.7,1.9-0.9c0.6-0.2,1.2-0.3,1.9-0.2c0.3,0,0.6,0,0.9,0c0.3,0,0.7,0.1,1,0.2c0.3,0.1,0.6,0.2,0.9,0.3
		c0.2,0.1,0.4,0.2,0.6,0.3c0.1,0.1,0.2,0.2,0.3,0.4c0.1,0.2,0.1,0.4,0.1,0.5c0.1,0.3,0.1,0.7,0.1,1
		C187.5,500.5,187.5,501.1,187.5,501.9z"/>
	<path class="st1" d="M201.6,489.2c0,1.7-0.3,2.8-1,3.5c-0.7,0.6-2,1-3.8,1s-3.1-0.3-3.8-0.9c-0.8-0.9-1.1-2.1-1-3.3
		c-0.1-1.3,0.2-2.5,1-3.5c0.7-0.7,2-1,3.8-1s3.1,0.3,3.8,0.9C201.4,486.7,201.7,488,201.6,489.2z M201,528.7c0,0.2-0.1,0.4-0.2,0.6
		c-0.2,0.2-0.4,0.3-0.7,0.4c-0.4,0.1-0.8,0.2-1.3,0.2c-1.3,0.1-2.7,0.1-4,0c-0.4,0-0.9-0.1-1.3-0.2c-0.3-0.1-0.5-0.2-0.7-0.4
		c-0.1-0.2-0.2-0.4-0.2-0.6v-29.5c0-0.2,0.1-0.4,0.2-0.6c0.2-0.2,0.4-0.3,0.7-0.4c0.4-0.1,0.8-0.2,1.3-0.3c1.3-0.1,2.7-0.1,4,0
		c0.4,0,0.9,0.1,1.3,0.3c0.3,0.1,0.5,0.2,0.7,0.4c0.1,0.2,0.2,0.4,0.2,0.6V528.7z"/>
	<path class="st1" d="M286.7,513.1c0.1,0.8-0.2,1.6-0.7,2.2c-0.5,0.5-1.2,0.8-1.9,0.7h-18c0,1.2,0.1,2.3,0.4,3.4
		c0.3,1,0.8,1.9,1.4,2.6c0.7,0.7,1.6,1.3,2.5,1.6c1.2,0.4,2.4,0.6,3.7,0.6c1.3,0,2.6-0.1,3.8-0.3c1-0.2,1.9-0.4,2.9-0.7
		c0.8-0.2,1.5-0.5,2-0.7c0.4-0.2,0.8-0.3,1.3-0.3c0.2,0,0.3,0,0.5,0.1c0.2,0.1,0.3,0.2,0.3,0.4c0.1,0.3,0.2,0.6,0.2,0.8
		c0,0.4,0,0.8,0,1.4s0,0.9,0,1.2c0,0.3,0,0.6-0.1,0.9c0,0.2-0.1,0.4-0.2,0.6c-0.1,0.2-0.2,0.3-0.3,0.5c-0.4,0.3-0.8,0.5-1.2,0.6
		c-0.8,0.3-1.6,0.6-2.5,0.8c-1.1,0.3-2.3,0.5-3.4,0.7c-1.4,0.2-2.7,0.3-4.1,0.3c-2.3,0-4.7-0.3-6.9-1c-1.9-0.6-3.6-1.6-5-3
		c-1.4-1.4-2.4-3.2-3-5.1c-0.7-2.3-1-4.8-1-7.2c0-2.4,0.3-4.8,1-7.1c0.6-2,1.6-3.8,3-5.4c1.3-1.5,2.9-2.6,4.8-3.4
		c4.1-1.5,8.6-1.5,12.6-0.1c1.7,0.7,3.1,1.7,4.3,3c1.1,1.3,2,2.9,2.5,4.6c0.5,1.9,0.8,3.8,0.8,5.8L286.7,513.1z M278.6,510.7
		c0.2-1.9-0.3-3.9-1.4-5.5c-1.1-1.4-2.9-2.1-4.6-2c-1,0-1.9,0.2-2.8,0.6c-0.8,0.4-1.4,0.9-2,1.6c-0.5,0.7-0.9,1.5-1.2,2.4
		c-0.3,0.9-0.4,1.9-0.5,2.9L278.6,510.7z"/>
	<path class="st1" d="M313.6,526.4c0,0.5,0,1.1-0.1,1.6c0,0.4-0.1,0.7-0.3,1.1c-0.1,0.2-0.2,0.4-0.4,0.5c-0.2,0.1-0.4,0.2-0.6,0.2
		h-19.3c-0.5,0-1-0.2-1.4-0.6c-0.4-0.6-0.6-1.2-0.5-1.9v-1.5c0-0.4,0-0.8,0-1.1c0-0.3,0.1-0.6,0.2-0.9c0.1-0.3,0.2-0.6,0.4-0.9
		c0.2-0.3,0.4-0.7,0.6-1l11.1-17.1h-10.4c-0.4,0-0.8-0.3-1-0.8c-0.3-0.8-0.4-1.7-0.4-2.5c0-0.5,0-1.1,0.1-1.6c0-0.3,0.1-0.7,0.2-1
		c0.2-0.4,0.6-0.7,1.1-0.7h18c0.3,0,0.5,0,0.8,0.1c0.2,0.1,0.4,0.2,0.5,0.4c0.2,0.2,0.3,0.5,0.3,0.7c0.1,0.4,0.1,0.8,0.1,1.2v1.6
		c0,0.4,0,0.8-0.1,1.2c0,0.3-0.1,0.7-0.2,1c-0.1,0.3-0.2,0.6-0.4,0.9c-0.2,0.3-0.4,0.6-0.6,1l-11,17h11.6c0.2,0,0.4,0,0.6,0.1
		c0.2,0.1,0.4,0.3,0.5,0.5c0.1,0.3,0.2,0.7,0.3,1C313.5,525.4,313.6,525.9,313.6,526.4z"/>
	<path class="st1" d="M345.9,513.1c0.1,0.8-0.2,1.6-0.7,2.2c-0.5,0.5-1.2,0.8-1.9,0.7h-18c0,1.2,0.1,2.3,0.5,3.4
		c0.3,1,0.8,1.9,1.4,2.6c0.7,0.7,1.6,1.3,2.5,1.6c1.2,0.4,2.4,0.6,3.7,0.6c1.3,0,2.6-0.1,3.8-0.3c1-0.2,1.9-0.4,2.9-0.7
		c0.8-0.2,1.5-0.5,2-0.7c0.4-0.2,0.9-0.3,1.3-0.3c0.2,0,0.3,0,0.5,0.1c0.2,0.1,0.3,0.2,0.3,0.4c0.1,0.3,0.2,0.6,0.2,0.8
		c0,0.4,0,0.8,0,1.4s0,0.9,0,1.2c0,0.3,0,0.6-0.1,0.9c0,0.2-0.1,0.4-0.2,0.6c-0.1,0.2-0.2,0.3-0.3,0.5c-0.4,0.3-0.8,0.5-1.2,0.6
		c-0.8,0.3-1.6,0.6-2.5,0.8c-1.1,0.3-2.3,0.5-3.4,0.7c-1.4,0.2-2.7,0.3-4.1,0.3c-2.3,0-4.7-0.3-6.9-1c-1.9-0.6-3.6-1.6-5-3
		c-1.4-1.4-2.4-3.2-3-5.1c-0.7-2.3-1-4.8-1-7.2c0-2.4,0.3-4.8,1-7.1c0.6-2,1.6-3.8,3-5.4c1.3-1.5,2.9-2.6,4.8-3.4
		c4.1-1.5,8.6-1.5,12.6-0.1c1.7,0.7,3.1,1.7,4.3,3c1.1,1.3,2,2.9,2.5,4.6c0.5,1.9,0.8,3.8,0.8,5.8L345.9,513.1z M337.8,510.7
		c0.2-1.9-0.3-3.9-1.4-5.5c-1.1-1.4-2.9-2.1-4.6-2c-1,0-1.9,0.2-2.8,0.6c-0.8,0.4-1.4,0.9-2,1.6c-0.5,0.7-0.9,1.5-1.2,2.4
		c-0.3,0.9-0.4,1.9-0.5,2.9L337.8,510.7z"/>
	<path class="st1" d="M373.5,520.4c0,1.5-0.3,3-0.9,4.4c-0.6,1.3-1.5,2.4-2.7,3.2c-1.2,0.9-2.6,1.5-4.1,1.9
		c-1.7,0.4-3.4,0.7-5.1,0.7c-1.1,0-2.1-0.1-3.2-0.2c-0.9-0.1-1.8-0.4-2.7-0.6c-0.7-0.2-1.4-0.5-2-0.8c-0.4-0.2-0.8-0.4-1.1-0.7
		c-0.3-0.3-0.5-0.7-0.6-1.1c-0.2-0.7-0.2-1.5-0.2-2.2c0-0.5,0-1,0.1-1.5c0-0.3,0.1-0.6,0.2-0.9c0.1-0.2,0.2-0.3,0.3-0.5
		c0.1-0.1,0.3-0.1,0.5-0.1c0.4,0.1,0.8,0.2,1.1,0.4c0.5,0.3,1.1,0.6,1.8,0.9c0.8,0.4,1.6,0.7,2.5,0.9c1,0.3,2.1,0.4,3.2,0.4
		c0.7,0,1.3-0.1,2-0.2c0.5-0.1,1.1-0.4,1.5-0.7c0.4-0.3,0.8-0.6,1-1.1c0.2-0.5,0.3-1,0.3-1.5c0-0.6-0.2-1.2-0.6-1.7
		c-0.5-0.5-1-0.9-1.6-1.2c-0.7-0.4-1.5-0.7-2.3-1c-0.9-0.3-1.7-0.7-2.6-1c-0.9-0.4-1.8-0.8-2.6-1.3c-0.8-0.5-1.6-1.1-2.3-1.8
		c-0.7-0.7-1.2-1.6-1.6-2.5c-0.4-1.1-0.6-2.4-0.6-3.6c0-1.3,0.3-2.7,0.8-3.9c0.6-1.2,1.4-2.2,2.4-3c1.1-0.9,2.4-1.6,3.8-2
		c1.6-0.5,3.3-0.7,5-0.7c0.9,0,1.8,0.1,2.7,0.2c0.8,0.1,1.6,0.3,2.4,0.5c0.6,0.2,1.2,0.4,1.8,0.7c0.4,0.2,0.7,0.4,1,0.6
		c0.2,0.1,0.3,0.3,0.4,0.5c0.1,0.2,0.2,0.4,0.2,0.6c0.1,0.3,0.1,0.6,0.1,0.9c0,0.3,0,0.8,0,1.3s0,1.1,0,1.5c0,0.3-0.1,0.6-0.2,0.9
		c0,0.2-0.2,0.3-0.3,0.5c-0.1,0.1-0.3,0.1-0.5,0.1c-0.3,0-0.6-0.2-0.9-0.3c-0.4-0.2-0.9-0.5-1.6-0.8c-0.7-0.3-1.4-0.5-2.2-0.7
		c-0.9-0.2-1.9-0.4-2.8-0.3c-0.7,0-1.3,0.1-2,0.2c-0.5,0.1-1,0.4-1.4,0.7c-0.3,0.3-0.6,0.6-0.8,1c-0.2,0.4-0.2,0.8-0.2,1.2
		c0,0.6,0.2,1.3,0.6,1.7c0.5,0.5,1,0.9,1.7,1.2c0.8,0.4,1.5,0.7,2.3,1c0.9,0.3,1.8,0.7,2.6,1c0.9,0.4,1.8,0.8,2.6,1.3
		c0.9,0.5,1.6,1.1,2.3,1.8c0.7,0.7,1.3,1.6,1.6,2.5C373.3,518,373.5,519.2,373.5,520.4z"/>
	<path class="st1" d="M408,528.7c0,0.2-0.1,0.4-0.2,0.6c-0.2,0.2-0.4,0.3-0.7,0.4c-0.4,0.1-0.8,0.2-1.3,0.2c-1.3,0.1-2.7,0.1-4,0
		c-0.4,0-0.9-0.1-1.3-0.2c-0.3-0.1-0.5-0.2-0.7-0.4c-0.1-0.2-0.2-0.4-0.2-0.6v-16.9c0-1.1-0.1-2.3-0.3-3.4c-0.2-0.7-0.5-1.5-0.9-2.1
		c-0.4-0.6-0.9-1-1.5-1.4c-0.7-0.3-1.4-0.5-2.2-0.5c-1.2,0-2.3,0.4-3.2,1.2c-1.3,1-2.4,2.1-3.4,3.4v19.6c0,0.2-0.1,0.4-0.2,0.6
		c-0.2,0.2-0.4,0.3-0.7,0.4c-0.4,0.1-0.8,0.2-1.3,0.2c-1.3,0.1-2.7,0.1-4,0c-0.4,0-0.9-0.1-1.3-0.2c-0.3,0-0.6-0.2-0.8-0.4
		c-0.1-0.2-0.2-0.4-0.2-0.6v-43.5c0-0.2,0.1-0.4,0.2-0.6c0.2-0.2,0.4-0.4,0.7-0.5c0.4-0.1,0.8-0.2,1.3-0.3c1.3-0.1,2.7-0.1,4,0
		c0.4,0,0.9,0.1,1.3,0.3c0.3,0.1,0.5,0.2,0.7,0.5c0.1,0.2,0.2,0.4,0.2,0.6v16.3c1.3-1.3,2.8-2.4,4.4-3.2c1.5-0.7,3-1,4.6-1
		c1.7,0,3.5,0.3,5.1,1c1.3,0.6,2.5,1.6,3.3,2.7c0.9,1.2,1.5,2.6,1.8,4c0.4,1.8,0.6,3.7,0.6,5.6L408,528.7z"/>
	<path class="st1" d="M441.3,528.8c0,0.3-0.1,0.6-0.3,0.7c-0.3,0.2-0.6,0.3-1,0.4c-1.4,0.2-2.9,0.2-4.3,0c-0.4,0-0.7-0.2-1-0.4
		c-0.2-0.2-0.3-0.5-0.3-0.7v-2.3c-1.2,1.3-2.6,2.3-4.2,3c-1.6,0.7-3.4,1.1-5.2,1.1c-1.5,0-2.9-0.2-4.3-0.6c-1.2-0.4-2.4-1-3.4-1.8
		c-1-0.8-1.7-1.8-2.2-3c-0.6-1.3-0.8-2.7-0.8-4.2c0-1.6,0.3-3.1,1-4.5c0.7-1.3,1.7-2.4,3-3.1c1.5-0.9,3.2-1.5,5-1.8
		c2.3-0.4,4.6-0.6,6.9-0.6h2.9v-1.8c0-0.8-0.1-1.6-0.3-2.4c-0.2-0.6-0.5-1.2-0.9-1.7c-0.5-0.5-1.1-0.8-1.7-1
		c-0.9-0.2-1.8-0.4-2.7-0.3c-1.3,0-2.5,0.1-3.7,0.5c-1,0.3-2,0.6-2.9,1c-0.8,0.4-1.5,0.7-2.1,1c-0.4,0.3-0.9,0.4-1.4,0.5
		c-0.2,0-0.5-0.1-0.6-0.2c-0.2-0.2-0.4-0.4-0.5-0.7c-0.1-0.3-0.2-0.7-0.3-1.1c-0.1-0.5-0.1-0.9-0.1-1.4c0-0.5,0-1.1,0.2-1.6
		c0.1-0.4,0.3-0.8,0.6-1.1c0.5-0.4,1-0.8,1.6-1.1c0.9-0.4,1.8-0.8,2.7-1.1c1.1-0.3,2.2-0.6,3.4-0.8c3.2-0.5,6.5-0.4,9.7,0.4
		c1.5,0.4,2.9,1.1,4.1,2.1c1.1,1,1.9,2.2,2.3,3.6c0.5,1.7,0.8,3.5,0.7,5.3L441.3,528.8z M433.1,516.2H430c-1.2,0-2.3,0.1-3.4,0.3
		c-0.8,0.1-1.6,0.5-2.3,0.9c-0.6,0.4-1,0.9-1.3,1.4c-0.3,0.6-0.4,1.3-0.4,1.9c-0.1,1.1,0.4,2.2,1.2,2.9c0.9,0.7,2.1,1.1,3.3,1.1
		c1.1,0,2.3-0.3,3.2-0.9c1.1-0.7,2.1-1.6,3-2.6L433.1,516.2z"/>
	<g>
		<path class="st1" d="M254.2,499.3c0,0.2,0,0.5-0.1,0.9s-0.2,0.8-0.4,1.5l-7.8,26.3c-0.1,0.4-0.3,0.7-0.4,0.9s-0.4,0.4-0.8,0.5
			c-0.4,0.1-0.9,0.2-1.5,0.3c-0.7,0-1.5,0.1-2.6,0.1c-1.1,0-1.9,0-2.6-0.1c-0.7-0.1-1.2-0.1-1.6-0.3c-0.4-0.1-0.7-0.3-0.8-0.5
			s-0.3-0.5-0.4-0.9l-4.9-17.7l-0.1-0.3l-0.1,0.3l-4.5,17.7c-0.1,0.4-0.2,0.7-0.4,0.9c-0.2,0.2-0.4,0.4-0.8,0.5
			c-0.4,0.1-0.9,0.2-1.6,0.3c-0.7,0-1.5,0.1-2.6,0.1c-1.1,0-2,0-2.6-0.1c-0.7-0.1-1.2-0.1-1.6-0.3c-0.4-0.1-0.7-0.3-0.8-0.5
			c-0.2-0.2-0.3-0.5-0.4-0.9l-7.7-26.3c-0.2-0.6-0.3-1.1-0.4-1.5c-0.1-0.4-0.1-0.7-0.1-0.9c0-0.2,0.1-0.4,0.2-0.6
			c0.1-0.2,0.3-0.3,0.7-0.4c0.3-0.1,0.7-0.2,1.3-0.2c0.5,0,1.2-0.1,2-0.1c0.9,0,1.6,0,2.1,0.1c0.5,0,1,0.1,1.3,0.2
			c0.3,0.1,0.5,0.3,0.6,0.4c0.1,0.2,0.2,0.4,0.3,0.7l5.8,21.4l0.1,0.4l0.1-0.4l5.4-21.4c0.1-0.3,0.2-0.5,0.3-0.7
			c0.1-0.2,0.4-0.3,0.6-0.4c0.3-0.1,0.7-0.2,1.2-0.2c0.5,0,1.2-0.1,2-0.1c0.8,0,1.5,0,2,0.1c0.5,0.1,0.9,0.1,1.2,0.2
			c0.3,0.1,0.5,0.2,0.6,0.4c0.1,0.2,0.2,0.4,0.3,0.6l5.8,21.5l0.1,0.4l0.1-0.4l5.6-21.4c0-0.3,0.1-0.5,0.3-0.7
			c0.1-0.2,0.3-0.3,0.7-0.4c0.3-0.1,0.7-0.2,1.2-0.2s1.2-0.1,2-0.1c0.8,0,1.5,0,2,0.1c0.5,0,0.9,0.1,1.2,0.2
			c0.3,0.1,0.5,0.2,0.6,0.4C254.2,498.9,254.2,499.1,254.2,499.3z"/>
	</g>
</g>
</svg>
