<?xml version="1.0" encoding="utf-8"?>
<!-- Generator: Adobe Illustrator 26.0.3, SVG Export Plug-In . SVG Version: 6.00 Build 0)  -->
<svg version="1.1" id="Layer_1" xmlns="http://www.w3.org/2000/svg" xmlns:xlink="http://www.w3.org/1999/xlink" x="0px" y="0px"
	 viewBox="0 0 919.6 165.5" style="enable-background:new 0 0 919.6 165.5;" xml:space="preserve">
<style type="text/css">
	.st0{fill:#FFFFFF;}
</style>
<g>
	<g>
		<path class="st0" d="M110.6,28c-39.2,1.6-69.6,34.7-68,73.9c1,23.6,13.7,45.2,33.8,57.5c1.1,0.8,2.7,0.5,3.5-0.6
			c0.8-1.1,0.5-2.7-0.6-3.5c-0.1-0.1-0.2-0.1-0.3-0.2c-31.1-19-41-59.6-22-90.7s59.6-41,90.7-22s41,59.6,22,90.7
			c-5.6,9.2-13.4,16.9-22.7,22.4c-1.2,0.7-1.6,2.2-0.8,3.4s2.2,1.6,3.4,0.8c33.7-20.1,44.7-63.7,24.6-97.3
			C161,40.3,136.6,27,110.6,28L110.6,28z"/>
		<path class="st0" d="M17.6,87h12.5c1.4,0,2.5,1.1,2.5,2.5v0c0,1.4-1.1,2.5-2.5,2.5H17.6c-1.4,0-2.5-1.1-2.5-2.5v0
			C15.1,88.2,16.2,87,17.6,87z"/>
		<path class="st0" d="M196.2,87h12.5c1.4,0,2.5,1.1,2.5,2.5v0c0,1.4-1.1,2.5-2.5,2.5h-12.5c-1.4,0-2.5-1.1-2.5-2.5v0
			C193.7,88.2,194.8,87,196.2,87z"/>
		<path class="st0" d="M40.2,47.5l-10.1-7.4c-1.1-0.8-2.7-0.6-3.5,0.5c0,0,0,0,0,0l0,0c-0.8,1.1-0.6,2.7,0.6,3.5c0,0,0,0,0,0
			l10.1,7.3c1.1,0.8,2.7,0.6,3.5-0.5c0,0,0,0,0,0l0,0C41.6,49.8,41.3,48.3,40.2,47.5z"/>
		<path class="st0" d="M68.9,26.6c0.6,1.2,2.1,1.7,3.3,1.1l0,0c1.2-0.6,1.7-2.1,1.1-3.3l-5.5-11.3c-0.6-1.2-2.1-1.7-3.3-1.1l0,0
			c-1.2,0.6-1.7,2.1-1.1,3.3L68.9,26.6z"/>
		<path class="st0" d="M114.8,19.8c1.4-0.1,2.4-1.2,2.4-2.6c0,0,0,0,0,0l-0.6-12.5c-0.1-1.4-1.2-2.4-2.6-2.4
			c-1.4,0.1-2.4,1.2-2.4,2.6l0,0l0.6,12.5C112.3,18.8,113.4,19.9,114.8,19.8C114.8,19.8,114.8,19.8,114.8,19.8z"/>
		<path class="st0" d="M152.2,27.6c1.3,0.4,2.7-0.4,3.1-1.7l3.6-12c0.3-1.3-0.5-2.7-1.8-3c-1.2-0.3-2.5,0.4-2.9,1.5l-3.6,12
			C150.2,25.8,150.9,27.2,152.2,27.6C152.2,27.6,152.2,27.6,152.2,27.6z"/>
		<path class="st0" d="M197.4,37.5L197.4,37.5c-0.9-1-2.5-1.1-3.5-0.1c0,0,0,0,0,0l-9.2,8.5c-1,0.9-1.1,2.5-0.1,3.5
			c0.9,1,2.5,1.1,3.5,0.1l9.2-8.5C198.3,40,198.4,38.5,197.4,37.5C197.4,37.5,197.4,37.5,197.4,37.5z"/>
		<path class="st0" d="M162.2,79.8l-0.2-1.4l-1.4-0.2c-13.1-2.1-22.9,0.2-29.2,6.6c-9.4,9.6-7.4,25.2-7,27.6l-8.9,8.9V93.6
			c10.3-6.2,15.6-13.8,15.6-22.4c0.1-14.3-14.5-26.5-16.6-27.7l-1.3-0.7l-1.1,0.9C101.5,52.5,96.4,61.8,97,71
			c0.8,12.1,11.2,20.2,14.4,22.5v41.7L105,129l0,0l0.3-1.2c0.1-0.6,3.1-13.9-4.8-22.7c-5.3-6-14.2-8.3-26.2-6.9l-1.5,0.2l-0.2,1.5
			c-0.1,0.7-3,17.9,6.5,26.5c3.4,3.1,7.9,4.7,13.5,4.7c2.7,0,5.4-0.3,8-0.9l10.1,9.9l0.8,1.1v11.7h-4.7c-1.1,0-2,0.9-2,2s0.9,2,2,2
			h13.5c1.1,0,2-0.9,2-2s-0.9-2-2-2h-4.8v-25.9l12.3-12.2c3.1,0.6,6.4,1,9.6,1c7.3,0,13.1-2,17.4-6.1
			C165.4,99.4,162.4,80.6,162.2,79.8z M115.4,49.4c3.7,3.5,6.8,7.6,9.2,12.1l-9.2,4.4V49.4z M115.4,70.3l10.7-5.1
			c0.6,1.9,0.9,3.9,0.9,5.9c0,0.3,0,0.5,0,0.8l-11.6,6.7V70.3z M115.4,83.3l10.4-6c-1.7,4.2-5.2,8.1-10.4,11.7V83.3z M88.8,102.7
			l-0.7,9.6l-10.6-10.4C81.2,101.6,85.1,101.9,88.8,102.7z M76,106.1l4.8,4.7h-4.6C76.1,109.2,76,107.7,76,106.1z M78.7,119.6
			c-0.8-1.5-1.4-3.1-1.8-4.8h8l4.3,4.2l-10.5,0.2L78.7,119.6z M81.7,123.4l-0.3-0.3l11.7-0.3l3.9,3.8
			C90.4,127.7,85.2,126.6,81.7,123.4L81.7,123.4z M95.1,119.2l-3.4-3.3l0.9-11.8c1.7,0.8,3.2,1.9,4.5,3.3L95.1,119.2z M101.7,125.7
			l-3.1-3.1l1.8-10.3C102.5,117.5,102,123.2,101.7,125.7L101.7,125.7z M111.5,88.5c-3.8-3.2-9.9-9.5-10.5-17.8c0-0.3,0-0.6,0-0.9
			l10.5,9.4L111.5,88.5z M111.5,73.9l-10-8.9c0.6-2.3,1.5-4.5,2.7-6.5l7.3,6.2L111.5,73.9z M111.5,59.5l-5-4.3c1.5-2,3.2-3.9,5-5.6
			V59.5z M155.3,81.5l-6.4,6.4l-0.3-6.5C150.8,81.3,153.1,81.3,155.3,81.5L155.3,81.5z M158.7,83.8c0.2,3.7,0.1,10-2,15.6l-9.9-3.7
			L158.7,83.8z M144.7,82.1l0.4,9.7l-6.4,6.3l-0.4-13.7C140.3,83.3,142.4,82.5,144.7,82.1L144.7,82.1z M134.2,87.5l0.2-0.2l0.4,14.6
			l-6.8,6.8C127.7,103.7,128,93.8,134.2,87.5z M131.2,111.1l3.6-3.6l8.4,3.5C139.2,111.8,135.1,111.9,131.2,111.1L131.2,111.1z
			 M148.7,109L148.7,109l-10.9-4.5l5.8-5.8l11.2,4.2c-0.8,1.4-1.8,2.6-2.9,3.7C150.9,107.6,149.8,108.4,148.7,109L148.7,109z"/>
		<path class="st0" d="M128.2,158.5h-29c-1.3,0.2-2.2,1.4-2,2.7c0.2,1,1,1.8,2,2h29c1.3-0.2,2.2-1.4,2-2.7
			C130,159.4,129.2,158.6,128.2,158.5z"/>
	</g>
	<g>
		<path class="st0" d="M316,128.6c0.4,1.2,0.7,2.5,0.9,3.8c0.1,0.7,0,1.5-0.5,2c-0.7,0.6-1.6,0.9-2.4,0.9c-1.2,0.1-2.8,0.2-4.8,0.2
			c-2.1,0-3.8,0-5-0.1c-0.9,0-1.8-0.2-2.7-0.4c-0.5-0.1-1-0.4-1.3-0.9c-0.3-0.4-0.5-0.9-0.6-1.4l-5.5-17.4h-30.5l-5.1,17
			c-0.1,0.6-0.4,1.1-0.7,1.6c-0.3,0.5-0.8,0.8-1.3,1c-0.8,0.3-1.7,0.5-2.6,0.5c-1.1,0-2.6,0.1-4.4,0.1c-1.5,0-3-0.1-4.5-0.2
			c-0.8,0-1.6-0.4-2.3-1c-0.4-0.6-0.6-1.4-0.4-2.2c0.2-1.3,0.5-2.5,0.9-3.7l25-77c0.2-0.7,0.5-1.3,0.9-1.8c0.4-0.5,1-0.9,1.6-1.1
			c1-0.3,2-0.4,3.1-0.5c1.3,0,3,0,5.1,0c2.5,0,4.4,0,5.9,0c1.2,0,2.3,0.2,3.4,0.5c0.7,0.2,1.3,0.5,1.8,1.1c0.4,0.6,0.7,1.3,0.9,2
			L316,128.6z M278.8,65L278.8,65l-11.5,36.9h23L278.8,65z"/>
		<path class="st0" d="M376.9,77.3c0.1,1.6-0.2,3.2-0.7,4.8c-0.5,1-1,1.5-1.7,1.5h-6.6c0.9,1.1,1.5,2.3,1.9,3.6
			c0.4,1.4,0.6,2.8,0.6,4.3c0.1,3.2-0.5,6.3-1.6,9.3c-1,2.6-2.6,5-4.7,6.8c-2.2,1.9-4.7,3.4-7.4,4.2c-3.1,1-6.3,1.5-9.6,1.4
			c-1.7,0-3.5-0.2-5.1-0.7c-1.3-0.3-2.6-0.9-3.8-1.7c-0.5,0.6-1,1.3-1.3,2c-0.4,0.8-0.6,1.7-0.6,2.7c0,1.3,0.6,2.5,1.6,3.2
			c1.3,0.9,2.9,1.4,4.5,1.4l13.6,0.5c2.9,0.1,5.7,0.6,8.5,1.4c2.3,0.7,4.4,1.9,6.3,3.5c1.7,1.5,3,3.3,3.9,5.4
			c0.9,2.3,1.4,4.7,1.3,7.2c0,2.9-0.7,5.8-1.9,8.3c-1.3,2.7-3.2,5-5.5,6.8c-2.8,2.1-5.9,3.6-9.1,4.6c-4.2,1.2-8.5,1.8-12.8,1.7
			c-4.1,0.1-8.2-0.3-12.2-1.2c-2.9-0.6-5.7-1.7-8.3-3.3c-2-1.2-3.6-3-4.7-5.1c-1-2-1.5-4.3-1.5-6.5c0-1.4,0.2-2.9,0.5-4.2
			c0.4-1.4,0.9-2.6,1.6-3.8c0.7-1.3,1.6-2.5,2.5-3.5c1.1-1.2,2.2-2.3,3.5-3.2c-3.5-1.9-5.7-5.8-5.7-10c0-2.5,0.6-5,1.7-7.2
			c1.2-2.2,2.6-4.2,4.4-5.9c-1.5-1.6-2.7-3.5-3.5-5.6c-0.9-2.6-1.4-5.3-1.3-8.1c-0.1-3.2,0.5-6.4,1.7-9.4c1.1-2.7,2.7-5.1,4.8-7
			c2.2-2,4.7-3.4,7.4-4.4c3.1-1.1,6.3-1.6,9.5-1.5c1.7,0,3.4,0.1,5.1,0.3c1.5,0.2,3,0.5,4.5,0.9h17.8c0.7,0,1.3,0.5,1.7,1.5
			C376.7,73.9,376.9,75.6,376.9,77.3z M360.3,139.2c0.1-1.9-0.8-3.6-2.3-4.6c-1.9-1.2-4-1.8-6.2-1.7l-11.2-0.3
			c-1,0.7-1.8,1.5-2.6,2.5c-0.6,0.7-1.1,1.4-1.6,2.2c-0.4,0.6-0.6,1.3-0.8,2c-0.1,0.7-0.2,1.3-0.2,2c0,2.2,1.2,4.2,3.2,5.1
			c2.8,1.3,5.9,1.9,8.9,1.8c2,0,4.1-0.2,6-0.8c1.4-0.4,2.8-1.1,3.9-2c0.9-0.7,1.7-1.7,2.1-2.8C360.1,141.4,360.3,140.3,360.3,139.2z
			 M356.5,91.4c0.4-5.1-3.1-9.7-7.9-10.1c-0.6-0.1-1.1-0.1-1.7,0c-1.4,0-2.8,0.3-4.1,0.8c-1.1,0.5-2.1,1.3-2.9,2.3
			c-0.8,1-1.4,2.1-1.7,3.4c-0.4,1.3-0.6,2.7-0.6,4.1c-0.1,2.7,0.8,5.3,2.5,7.2c1.9,1.9,4.4,2.8,7,2.7c1.4,0,2.8-0.2,4.2-0.8
			c1.1-0.5,2.1-1.3,2.9-2.2c0.8-1,1.4-2.1,1.7-3.2C356.4,94.1,356.6,92.8,356.5,91.4L356.5,91.4z"/>
		<path class="st0" d="M423.3,78.7c0,1.6,0,2.9-0.1,4.1c-0.1,0.8-0.2,1.6-0.4,2.4c-0.1,0.5-0.3,0.9-0.7,1.2c-0.3,0.2-0.7,0.4-1,0.3
			c-0.4,0-0.8-0.1-1.1-0.2l-1.4-0.5c-0.6-0.2-1.1-0.4-1.7-0.5c-0.7-0.2-1.4-0.3-2.1-0.2c-0.9,0-1.8,0.2-2.6,0.6
			c-1,0.5-1.9,1.1-2.7,1.8c-1.1,1-2.1,2-3,3.2c-1.2,1.6-2.3,3.2-3.3,5V133c0,0.4-0.1,0.8-0.4,1.2c-0.3,0.4-0.8,0.7-1.3,0.8
			c-0.8,0.3-1.6,0.4-2.4,0.5c-1.3,0.1-2.5,0.2-3.8,0.2c-1.3,0-2.5,0-3.8-0.2c-0.8-0.1-1.6-0.2-2.4-0.5c-0.5-0.1-0.9-0.4-1.3-0.8
			c-0.2-0.3-0.4-0.8-0.4-1.2V73.1c0-0.4,0.1-0.8,0.3-1.2c0.3-0.4,0.7-0.7,1.1-0.9c0.7-0.3,1.4-0.4,2.1-0.5c1.1-0.1,2.1-0.2,3.2-0.2
			c1.1,0,2.2,0,3.3,0.2c0.7,0.1,1.4,0.2,2,0.5c0.4,0.2,0.8,0.5,1,0.9c0.2,0.3,0.3,0.8,0.3,1.2v7.4c1.3-2,2.6-3.8,4.2-5.5
			c1.1-1.3,2.4-2.5,3.7-3.5c1.1-0.8,2.3-1.4,3.5-1.8c1.1-0.3,2.3-0.5,3.5-0.5c0.5,0,1.1,0,1.7,0c0.6,0.1,1.3,0.2,1.9,0.3
			c0.6,0.1,1.2,0.3,1.8,0.5c0.4,0.1,0.8,0.4,1.1,0.6c0.2,0.2,0.4,0.5,0.5,0.7c0.1,0.4,0.2,0.7,0.3,1.1c0.1,0.7,0.2,1.4,0.2,2.1
			C423.3,75.8,423.3,77.1,423.3,78.7z"/>
		<path class="st0" d="M450.1,52.8c0,3.4-0.6,5.8-1.9,7.1c-1.3,1.3-3.8,1.9-7.2,1.9s-6-0.6-7.2-1.9c-1.5-1.9-2.1-4.3-1.9-6.8
			c-0.3-2.5,0.4-5.1,1.9-7.1c1.3-1.3,3.8-2,7.3-2s5.9,0.6,7.1,1.9C449.6,47.9,450.3,50.4,450.1,52.8z M448.9,132.9
			c0,0.4-0.1,0.8-0.4,1.2c-0.3,0.4-0.8,0.7-1.3,0.8c-0.8,0.3-1.6,0.4-2.4,0.5c-2.5,0.2-5.1,0.2-7.6,0c-0.8-0.1-1.6-0.2-2.4-0.5
			c-0.5-0.1-0.9-0.4-1.3-0.8c-0.2-0.3-0.4-0.7-0.4-1.2V73.2c0-0.4,0.1-0.8,0.4-1.2c0.4-0.4,0.8-0.7,1.3-0.9c0.8-0.3,1.6-0.5,2.4-0.6
			c2.5-0.3,5.1-0.3,7.6,0c0.8,0.1,1.6,0.3,2.4,0.6c0.5,0.2,0.9,0.5,1.3,0.9c0.3,0.3,0.4,0.7,0.4,1.2V132.9z"/>
		<path class="st0" d="M611.5,101.3c0.1,1.6-0.3,3.3-1.3,4.6c-0.9,1-2.2,1.5-3.5,1.5h-34.1c0,2.3,0.2,4.7,0.8,6.9
			c0.5,2,1.4,3.8,2.7,5.3c1.3,1.5,2.9,2.6,4.8,3.3c2.3,0.8,4.6,1.2,7,1.1c2.4,0,4.9-0.2,7.3-0.6c1.9-0.4,3.7-0.8,5.5-1.4
			c1.5-0.5,2.8-1,3.8-1.4c0.8-0.4,1.6-0.6,2.4-0.6c0.3,0,0.6,0.1,0.9,0.2c0.3,0.2,0.5,0.5,0.6,0.8c0.2,0.5,0.3,1.1,0.4,1.7
			c0,0.7,0.1,1.7,0.1,2.8c0,1.1,0,1.8,0,2.5c0,0.6-0.1,1.2-0.2,1.8c-0.1,0.4-0.2,0.9-0.4,1.3c-0.2,0.4-0.4,0.7-0.6,1
			c-0.7,0.5-1.4,1-2.2,1.3c-1.5,0.6-3.1,1.2-4.6,1.6c-2.1,0.6-4.3,1-6.5,1.4c-2.6,0.4-5.2,0.6-7.8,0.6c-4.4,0.1-8.9-0.6-13.1-2
			c-3.5-1.2-6.8-3.3-9.4-6.1c-2.6-2.9-4.6-6.4-5.7-10.3c-1.3-4.7-2-9.7-1.9-14.6c-0.1-4.9,0.6-9.7,1.9-14.4c1.2-4,3.1-7.7,5.7-10.9
			c2.5-3,5.6-5.3,9-6.8c7.7-3.1,16.2-3.1,24-0.1c3.1,1.3,5.9,3.4,8.2,6.1c2.2,2.7,3.8,5.9,4.7,9.3c1,3.8,1.5,7.7,1.5,11.6
			L611.5,101.3z M596.1,96.4c0.3-3.9-0.6-7.9-2.7-11.2c-2.1-2.8-5.4-4.3-8.8-4.1c-1.8,0-3.6,0.4-5.2,1.2c-1.4,0.8-2.7,1.9-3.7,3.2
			c-1,1.5-1.8,3.1-2.3,4.8c-0.5,1.9-0.8,3.9-0.9,5.9L596.1,96.4z"/>
		<path class="st0" d="M662.3,128.3c0,1.1,0,2.2-0.2,3.3c-0.1,0.7-0.2,1.5-0.5,2.2c-0.2,0.5-0.4,0.8-0.8,1.1
			c-0.3,0.2-0.7,0.3-1.1,0.3h-36.6c-1,0.1-2-0.4-2.6-1.2c-0.7-1.1-1.1-2.5-1-3.9V127c0-0.8,0-1.5,0-2.2c0.1-0.6,0.2-1.3,0.4-1.9
			c0.2-0.6,0.5-1.3,0.8-1.8c0.4-0.7,0.8-1.4,1.2-2l21-34.6h-19.7c-0.8,0-1.4-0.5-1.9-1.6c-0.6-1.6-0.8-3.4-0.7-5.2
			c0-1.1,0-2.2,0.2-3.2c0.1-0.7,0.2-1.4,0.5-2c0.3-0.9,1.1-1.5,2-1.4h34.1c0.5,0,1,0.1,1.5,0.2c0.4,0.1,0.8,0.4,1,0.7
			c0.3,0.4,0.5,0.9,0.6,1.5c0.1,0.8,0.2,1.6,0.2,2.4V79c0,0.8,0,1.6-0.1,2.4c-0.1,0.7-0.2,1.4-0.4,2c-0.2,0.7-0.4,1.3-0.7,1.9
			c-0.3,0.6-0.7,1.3-1.1,2l-20.9,34.5h22.1c0.4,0,0.7,0.1,1.1,0.3c0.4,0.2,0.7,0.6,0.9,1c0.3,0.6,0.5,1.3,0.5,2
			C662.2,126.2,662.3,127.3,662.3,128.3z"/>
		<path class="st0" d="M723.6,101.3c0.1,1.6-0.3,3.3-1.3,4.6c-0.9,1-2.2,1.5-3.5,1.5h-34.1c0,2.3,0.3,4.7,0.9,6.9
			c0.5,2,1.4,3.8,2.7,5.3c1.3,1.5,2.9,2.6,4.8,3.3c2.3,0.8,4.6,1.2,7,1.1c2.4,0,4.9-0.2,7.3-0.6c1.8-0.4,3.6-0.8,5.4-1.4
			c1.5-0.5,2.8-1,3.8-1.4c0.8-0.4,1.6-0.6,2.5-0.6c0.3,0,0.6,0.1,0.9,0.2c0.3,0.2,0.5,0.5,0.6,0.8c0.2,0.5,0.3,1.1,0.4,1.7
			c0,0.7,0.1,1.7,0.1,2.8c0,1.1,0,1.8,0,2.5c0,0.6-0.1,1.2-0.2,1.8c-0.1,0.4-0.2,0.9-0.4,1.3c-0.2,0.4-0.4,0.7-0.6,1
			c-0.7,0.5-1.4,1-2.2,1.3c-1.5,0.6-3.1,1.2-4.6,1.6c-2.1,0.6-4.3,1-6.5,1.4c-2.6,0.4-5.2,0.6-7.8,0.6c-4.4,0.1-8.9-0.6-13.1-2
			c-3.5-1.2-6.8-3.3-9.4-6.1c-2.6-2.9-4.6-6.4-5.7-10.3c-1.3-4.7-2-9.7-1.9-14.6c-0.1-4.9,0.6-9.7,1.9-14.4c1.2-4,3.1-7.7,5.7-10.9
			c2.5-3,5.6-5.3,9-6.8c7.7-3.1,16.2-3.1,24-0.1c3.1,1.3,5.9,3.4,8.2,6.1c2.2,2.7,3.8,5.9,4.7,9.3c1,3.8,1.5,7.7,1.5,11.6
			L723.6,101.3z M708.3,96.4c0.3-3.9-0.6-7.9-2.7-11.2c-2.1-2.8-5.4-4.3-8.8-4.1c-1.8,0-3.6,0.4-5.2,1.2c-1.5,0.8-2.7,1.9-3.7,3.2
			c-1,1.5-1.8,3.1-2.3,4.8c-0.5,1.9-0.9,3.9-0.9,5.9L708.3,96.4z"/>
		<path class="st0" d="M776,116c0.1,3.1-0.5,6.2-1.8,9c-1.2,2.6-2.9,4.8-5,6.5c-2.3,1.8-4.9,3.1-7.7,3.9c-3.2,0.9-6.4,1.3-9.7,1.3
			c-2,0-4-0.2-6-0.5c-1.7-0.3-3.4-0.7-5.1-1.3c-1.3-0.4-2.6-0.9-3.8-1.6c-0.8-0.4-1.5-0.9-2.2-1.5c-0.5-0.6-0.9-1.4-1.1-2.2
			c-0.3-1.5-0.4-3-0.4-4.5c0-1,0-2.1,0.1-3.1c0-0.6,0.2-1.3,0.4-1.9c0.1-0.4,0.3-0.7,0.6-0.9c0.3-0.2,0.6-0.3,0.9-0.2
			c0.7,0.1,1.4,0.4,2,0.8c0.9,0.6,2,1.2,3.4,1.8c1.5,0.7,3.1,1.4,4.7,1.9c2,0.6,4,0.9,6,0.9c1.3,0,2.6-0.1,3.8-0.5
			c1-0.3,2-0.7,2.9-1.3c0.8-0.5,1.5-1.3,1.9-2.2c0.4-1,0.6-2,0.6-3.1c0-1.3-0.4-2.5-1.2-3.4c-0.9-1-1.9-1.9-3.1-2.5
			c-1.4-0.8-2.8-1.5-4.3-2c-1.6-0.6-3.3-1.3-5-2c-1.7-0.8-3.3-1.6-4.9-2.6c-1.6-1-3.1-2.2-4.3-3.6c-1.3-1.5-2.4-3.3-3.1-5.2
			c-0.8-2.3-1.2-4.8-1.2-7.2c0-2.7,0.5-5.4,1.6-7.9c1-2.4,2.6-4.4,4.5-6.1c2.1-1.8,4.6-3.2,7.2-4.1c3.1-1,6.3-1.4,9.5-1.4
			c1.7,0,3.4,0.1,5.1,0.4c1.5,0.2,3,0.6,4.5,1c1.2,0.3,2.3,0.8,3.4,1.3c0.7,0.3,1.3,0.7,1.9,1.2c0.3,0.3,0.6,0.6,0.8,1
			c0.2,0.4,0.3,0.8,0.4,1.2c0.1,0.6,0.2,1.2,0.2,1.7c0,0.7,0.1,1.6,0.1,2.6s0,2.2-0.1,3c0,0.6-0.1,1.2-0.3,1.8
			c-0.1,0.4-0.3,0.7-0.6,0.9c-0.3,0.2-0.6,0.2-0.9,0.2c-0.6-0.1-1.2-0.3-1.8-0.7c-0.8-0.5-1.8-1-3-1.5c-1.4-0.6-2.7-1.1-4.2-1.5
			c-1.7-0.5-3.6-0.7-5.4-0.7c-1.2,0-2.5,0.1-3.7,0.5c-0.9,0.3-1.8,0.7-2.6,1.4c-0.6,0.5-1.2,1.2-1.5,2c-0.3,0.8-0.4,1.6-0.4,2.5
			c0,1.3,0.4,2.5,1.2,3.5c0.9,1,2,1.9,3.1,2.5c1.4,0.8,2.9,1.5,4.4,2c1.6,0.6,3.3,1.3,5,2c1.7,0.8,3.4,1.6,5,2.6
			c1.6,1,3.1,2.2,4.4,3.6c1.3,1.5,2.4,3.2,3.1,5.1C775.6,111.2,776,113.6,776,116z"/>
		<path class="st0" d="M841.3,132.9c0,0.4-0.1,0.8-0.4,1.2c-0.3,0.4-0.8,0.7-1.3,0.8c-0.8,0.3-1.6,0.4-2.4,0.5
			c-2.5,0.2-5.1,0.2-7.6,0c-0.8-0.1-1.6-0.2-2.4-0.5c-0.5-0.1-0.9-0.4-1.3-0.8c-0.2-0.3-0.4-0.7-0.4-1.2V98.8
			c0.1-2.3-0.1-4.6-0.6-6.8c-0.3-1.5-0.9-3-1.7-4.3c-0.7-1.2-1.7-2.1-2.9-2.8c-1.3-0.7-2.7-1-4.2-1c-2.2,0.1-4.3,0.9-6.1,2.4
			c-2.4,1.9-4.6,4.2-6.4,6.8v39.8c0,0.4-0.1,0.8-0.4,1.2c-0.3,0.4-0.8,0.7-1.3,0.8c-0.8,0.3-1.6,0.4-2.4,0.5c-2.5,0.2-5.1,0.2-7.6,0
			c-0.8-0.1-1.6-0.2-2.4-0.5c-0.5-0.1-1-0.4-1.4-0.8c-0.2-0.3-0.4-0.7-0.4-1.2V44.7c0-0.4,0.1-0.9,0.4-1.2c0.3-0.4,0.8-0.7,1.3-0.9
			c0.8-0.3,1.6-0.5,2.4-0.6c2.5-0.3,5.1-0.3,7.6,0c0.8,0.1,1.6,0.3,2.4,0.6c0.5,0.2,1,0.5,1.3,0.9c0.3,0.3,0.4,0.8,0.4,1.2v33
			c2.4-2.6,5.2-4.8,8.3-6.4c2.8-1.4,5.8-2,8.8-2c3.3-0.1,6.6,0.6,9.6,2c2.5,1.2,4.7,3.1,6.3,5.5c1.7,2.4,2.8,5.2,3.5,8.1
			c0.8,3.7,1.1,7.5,1.1,11.3L841.3,132.9z"/>
		<path class="st0" d="M904.5,133.1c0,0.6-0.2,1.1-0.6,1.5c-0.6,0.4-1.2,0.7-1.9,0.8c-2.7,0.3-5.4,0.3-8.1,0
			c-0.7-0.1-1.3-0.3-1.9-0.8c-0.4-0.4-0.5-0.9-0.5-1.5v-4.8c-2.2,2.6-4.9,4.7-7.9,6.2c-3.1,1.5-6.4,2.3-9.8,2.2
			c-2.8,0-5.5-0.4-8.2-1.2c-2.4-0.8-4.6-2-6.5-3.7c-1.8-1.7-3.3-3.7-4.2-6.1c-1-2.7-1.6-5.6-1.5-8.4c-0.1-3.2,0.6-6.3,1.9-9.1
			c1.3-2.6,3.3-4.8,5.7-6.4c2.9-1.8,6.1-3.1,9.5-3.7c4.3-0.8,8.7-1.2,13.1-1.2h5.5v-3.6c0-1.7-0.2-3.3-0.5-4.9
			c-0.3-1.3-0.9-2.5-1.7-3.5c-0.9-1-2-1.7-3.3-2c-1.6-0.5-3.4-0.7-5.1-0.7c-2.4,0-4.8,0.3-7.1,1c-1.9,0.5-3.7,1.2-5.5,2
			c-1.6,0.8-2.9,1.5-4,2c-0.8,0.5-1.7,0.9-2.6,0.9c-0.4,0-0.9-0.2-1.2-0.5c-0.4-0.4-0.7-0.8-0.9-1.3c-0.3-0.7-0.4-1.4-0.5-2.1
			c-0.1-0.9-0.2-1.9-0.2-2.8c0-1.1,0.1-2.2,0.3-3.3c0.2-0.8,0.6-1.6,1.2-2.2c0.9-0.9,2-1.6,3.1-2.1c1.7-0.9,3.4-1.6,5.2-2.2
			c2.1-0.7,4.3-1.3,6.4-1.6c6.1-1,12.4-0.8,18.4,0.7c2.8,0.8,5.5,2.2,7.7,4.2c2.1,2,3.6,4.5,4.4,7.4c1,3.5,1.5,7,1.4,10.7
			L904.5,133.1z M889,107.5h-6c-2.2,0-4.4,0.2-6.5,0.6c-1.6,0.3-3.1,0.9-4.4,1.8c-1.1,0.7-1.9,1.7-2.5,2.9c-0.5,1.2-0.8,2.6-0.8,3.9
			c-0.1,2.2,0.7,4.4,2.2,5.9c1.7,1.5,3.9,2.3,6.2,2.1c2.2,0,4.3-0.6,6.1-1.8c2.1-1.5,4-3.2,5.7-5.3L889,107.5z"/>
		<g>
			<path class="st0" d="M549.9,73.4c0,0.5-0.1,1.1-0.2,1.8c-0.1,0.7-0.4,1.7-0.7,3l-14.7,53.4c-0.2,0.8-0.5,1.4-0.8,1.8
				c-0.3,0.5-0.8,0.8-1.5,1.1c-0.7,0.3-1.7,0.4-2.9,0.5c-1.3,0.1-2.9,0.1-4.9,0.1c-2,0-3.7-0.1-5-0.2c-1.3-0.1-2.3-0.3-3-0.6
				s-1.2-0.6-1.6-1.1c-0.3-0.5-0.6-1-0.7-1.8l-9.3-35.9l-0.1-0.6l-0.1,0.6l-8.5,35.9c-0.2,0.8-0.4,1.4-0.7,1.8
				c-0.3,0.5-0.8,0.8-1.6,1.1c-0.7,0.3-1.8,0.4-3,0.5c-1.3,0.1-2.9,0.1-5,0.1c-2.1,0-3.7-0.1-5-0.2s-2.2-0.3-3-0.6
				c-0.7-0.3-1.2-0.6-1.6-1.1c-0.3-0.5-0.6-1-0.7-1.8l-14.6-53.4c-0.4-1.3-0.6-2.3-0.7-3c-0.1-0.7-0.2-1.3-0.2-1.8
				c0-0.4,0.1-0.8,0.3-1.2c0.2-0.3,0.6-0.6,1.2-0.8c0.6-0.2,1.4-0.3,2.4-0.4c1-0.1,2.3-0.1,3.8-0.1c1.7,0,3,0,4,0.1
				c1,0.1,1.8,0.2,2.4,0.5c0.6,0.2,1,0.5,1.2,0.9c0.2,0.4,0.4,0.8,0.5,1.4l11,43.3l0.1,0.8l0.1-0.8l10.3-43.3c0.1-0.5,0.3-1,0.6-1.4
				c0.3-0.4,0.7-0.7,1.2-0.9c0.5-0.2,1.3-0.4,2.3-0.5c1-0.1,2.2-0.1,3.7-0.1c1.5,0,2.8,0.1,3.7,0.2c0.9,0.1,1.7,0.3,2.3,0.5
				c0.6,0.2,0.9,0.5,1.2,0.8c0.2,0.3,0.4,0.7,0.5,1.2l11,43.7l0.2,0.7l0.1-0.8l10.5-43.3c0.1-0.5,0.2-1,0.5-1.4
				c0.2-0.4,0.7-0.7,1.2-0.9c0.6-0.2,1.4-0.4,2.4-0.5c1-0.1,2.2-0.1,3.8-0.1s2.8,0,3.7,0.1c1,0.1,1.7,0.2,2.3,0.4
				c0.6,0.2,0.9,0.5,1.1,0.8C549.8,72.6,549.9,73,549.9,73.4z"/>
		</g>
	</g>
</g>
</svg>
