<svg id="Layer_1" data-name="Layer 1" xmlns="http://www.w3.org/2000/svg" viewBox="0 0 533.26 541.88"><defs><style>.cls-1{fill:#6ba843;}.cls-2{fill:#395729;}</style></defs><path class="cls-1" d="M296.83,142.44c-99.73,3.86-180.74,84.38-185.16,184.1a193,193,0,0,0,92.25,173.4,6.78,6.78,0,0,0,9.14-1.92h0a6.74,6.74,0,0,0-2.05-9.57,179.53,179.53,0,0,1-86-156.38c1.66-94.69,77.72-172.47,172.36-176.14C399.55,152,484,234,484,335.28a179.58,179.58,0,0,1-88,154.35,6.73,6.73,0,0,0-2.49,8.95h0a6.77,6.77,0,0,0,9.44,2.62,193.07,193.07,0,0,0,94.52-165.92C497.45,226.33,406.71,138.18,296.83,142.44Z" transform="translate(-37.12 -72.71)"/><rect class="cls-1" y="230.25" width="47.56" height="13.5" rx="6.75"/><rect class="cls-1" x="485.7" y="230.25" width="47.56" height="13.5" rx="6.75"/><rect class="cls-1" x="80.94" y="167.03" width="13.5" height="47.56" rx="6.75" transform="matrix(0.59, -0.81, 0.81, 0.59, -155.23, 76.32)"/><rect class="cls-1" x="175.15" y="96.46" width="13.5" height="47.56" rx="6.75" transform="translate(-71.47 19.53) rotate(-26.09)"/><rect class="cls-1" x="300.29" y="72.69" width="13.5" height="47.56" rx="6.75" transform="translate(-41.34 -58.09) rotate(-2.71)"/><rect class="cls-1" x="393.03" y="111.77" width="47.56" height="13.5" rx="6.75" transform="translate(147.07 411.42) rotate(-73.41)"/><rect class="cls-1" x="491.69" y="177.63" width="47.56" height="13.5" rx="6.75" transform="translate(-24.38 328.4) rotate(-43)"/><path class="cls-1" d="M437.14,283.22l-.64-3.84-3.85-.61c-35.61-5.6-62.33.41-79.43,17.88-25.63,26.19-20.17,68.56-19.13,75.17L309.86,396V320.77c28-16.95,42.29-37.45,42.41-61,.19-38.9-39.41-72-45.06-75.35l-3.28-1.94L301,185c-29.09,24.21-42.94,49.27-41.17,74.5,2.3,32.93,30.45,55,39.22,61.16V434L281.65,417l.1,0,.71-3.13c.35-1.53,8.32-37.72-13.12-61.68-14.5-16.21-38.53-22.52-71.39-18.76l-4,.46-.69,4c-.35,2-8.2,48.71,17.68,72.13,9.31,8.42,21.59,12.64,36.7,12.64a105,105,0,0,0,21.76-2.5l27.36,26.8,2.31,2.93v31.81H286.29a5.4,5.4,0,0,0,0,10.8h36.53a5.4,5.4,0,1,0,0-10.8h-13V411.21L343.21,378a134.94,134.94,0,0,0,26,2.76c19.73,0,35.54-5.54,47.23-16.58C445.68,336.58,437.5,285.38,437.14,283.22ZM309.86,200.61c7.47,7.09,18.16,19,25,33l-25,11.9Zm0,56.86,29-13.83a52.81,52.81,0,0,1,2.57,16.11c0,.74,0,1.47-.09,2.2l-31.51,18.27Zm0,35.24,28.35-16.44c-4.61,11.49-14.08,22.09-28.35,31.7ZM237.4,345.64l-2,26L206.6,343.44Q224.28,342.26,237.4,345.64Zm-34.68,9.13,13.16,12.89H203.34A107.35,107.35,0,0,1,202.72,354.77Zm7.4,36.7a57,57,0,0,1-4.89-13h21.68l11.64,11.4-28.45.67ZM218.2,402c-.27-.25-.52-.53-.79-.79l31.91-.74,10.62,10.4C241.71,413.49,227.71,410.54,218.2,402Zm36.43-11.45-9.18-9,2.49-32.06a42.88,42.88,0,0,1,12.36,8.87ZM272.51,408,264,399.66l4.93-28C274.73,385.77,273.47,401.31,272.51,408Zm26.55-101c-10.33-8.62-26.88-25.78-28.45-48.27-.06-.82-.07-1.65-.08-2.47l28.53,25.57Zm0-39.68L272,243a65.64,65.64,0,0,1,7.28-17.63l19.78,17Zm0-39.15-13.72-11.77a127.36,127.36,0,0,1,13.72-15.22ZM418.25,288l-17.49,17.43-.69-17.5A116.4,116.4,0,0,1,418.25,288Zm-45.17,45-.95-37.25a61.29,61.29,0,0,1,17.19-6.28l1,26.32Zm-12.14-28.75c.19-.19.4-.36.59-.55l1,39.8L344,362C343.12,348.28,344,321.49,360.94,304.21Zm-8.34,64.41,9.84-9.8,23,9.46Q371.34,371.37,352.6,368.62Zm56.46-12.31a44.7,44.7,0,0,1-8.88,6.51l.07-.16-29.51-12.11,15.77-15.72,30.57,11.5A48.28,48.28,0,0,1,409.06,356.31Zm12.8-19.72-26.94-10.14,32.47-32.35C428,304.26,427.78,321.28,421.86,336.59Z" transform="translate(-37.12 -72.71)"/><path class="cls-1" d="M344.54,510H265.7c-3,0-5.4-2.85-5.4-6.36h0c0-3.51,2.42-6.36,5.4-6.36h78.84c3,0,5.41,2.85,5.41,6.36h0C350,507.1,347.53,510,344.54,510Z" transform="translate(-37.12 -72.71)"/><path class="cls-2" d="M158.74,599.27a11.74,11.74,0,0,1,.5,1.89,1.13,1.13,0,0,1-.27,1,2.12,2.12,0,0,1-1.29.43q-.93.09-2.55.09c-1.12,0-2,0-2.63-.05a6.86,6.86,0,0,1-1.44-.2,1.28,1.28,0,0,1-.69-.42,1.85,1.85,0,0,1-.33-.69l-2.88-8.61H131.07l-2.71,8.38a2.75,2.75,0,0,1-.35.77,1.46,1.46,0,0,1-.7.5,5.34,5.34,0,0,1-1.35.25c-.59,0-1.36.07-2.3.07a23.9,23.9,0,0,1-2.39-.1,1.86,1.86,0,0,1-1.19-.48,1.3,1.3,0,0,1-.23-1.08,10.73,10.73,0,0,1,.5-1.85l13.2-38a3.35,3.35,0,0,1,.47-.91,1.59,1.59,0,0,1,.84-.53,6.61,6.61,0,0,1,1.61-.23c.68,0,1.58,0,2.71,0,1.3,0,2.34,0,3.11,0a8.17,8.17,0,0,1,1.8.23,1.71,1.71,0,0,1,.93.54,3.21,3.21,0,0,1,.48,1Zm-19.66-31.41h0L133,586.07h12.15Z" transform="translate(-37.12 -72.71)"/><path class="cls-2" d="M190.85,573.92a5.6,5.6,0,0,1-.37,2.35c-.24.51-.54.76-.89.76h-3.48a4.69,4.69,0,0,1,1,1.8,7.09,7.09,0,0,1,.31,2.11,11.58,11.58,0,0,1-.86,4.58,9.06,9.06,0,0,1-2.46,3.38,11,11,0,0,1-3.88,2.08,16.61,16.61,0,0,1-5.05.71,10.48,10.48,0,0,1-2.71-.34,7.18,7.18,0,0,1-2-.82,5,5,0,0,0-.71,1,2.79,2.79,0,0,0-.31,1.32,1.88,1.88,0,0,0,.84,1.58,4.41,4.41,0,0,0,2.37.68l7.18.26a17.6,17.6,0,0,1,4.49.71,9.7,9.7,0,0,1,3.31,1.72,7.53,7.53,0,0,1,2.05,2.67,8.51,8.51,0,0,1,.71,3.54,9.14,9.14,0,0,1-1,4.12,9.36,9.36,0,0,1-2.88,3.36,14.77,14.77,0,0,1-4.82,2.25,24.75,24.75,0,0,1-6.76.83,29.69,29.69,0,0,1-6.44-.6,14.1,14.1,0,0,1-4.37-1.65,6.65,6.65,0,0,1-2.48-2.53,6.82,6.82,0,0,1-.78-3.23,7.54,7.54,0,0,1,.28-2.09,7.78,7.78,0,0,1,.83-1.9,9.41,9.41,0,0,1,1.34-1.74,14.39,14.39,0,0,1,1.82-1.59,5.51,5.51,0,0,1-3-4.93,7.26,7.26,0,0,1,.89-3.56,11.4,11.4,0,0,1,2.32-2.89,8.84,8.84,0,0,1-1.85-2.78,10.2,10.2,0,0,1-.7-4,11.17,11.17,0,0,1,.91-4.62,9.8,9.8,0,0,1,2.53-3.44,11.18,11.18,0,0,1,3.88-2.15,15.6,15.6,0,0,1,5-.75,20.79,20.79,0,0,1,2.67.17,17.62,17.62,0,0,1,2.36.46h9.37c.37,0,.68.24.91.73A6.17,6.17,0,0,1,190.85,573.92Zm-8.74,30.55a2.59,2.59,0,0,0-1.19-2.28,6.21,6.21,0,0,0-3.28-.86l-5.92-.17a8.25,8.25,0,0,0-1.38,1.21,7,7,0,0,0-.83,1.11,3.57,3.57,0,0,0-.41,1,5,5,0,0,0-.1,1,2.71,2.71,0,0,0,1.67,2.51,10.42,10.42,0,0,0,4.72.87,11.13,11.13,0,0,0,3.18-.39,6,6,0,0,0,2.08-1,3.6,3.6,0,0,0,1.13-1.4A4.18,4.18,0,0,0,182.11,604.47Zm-2-23.57a4.61,4.61,0,0,0-5.07-5,5.35,5.35,0,0,0-2.15.41,4.43,4.43,0,0,0-1.54,1.13,4.71,4.71,0,0,0-.91,1.66,6.38,6.38,0,0,0-.3,2,4.74,4.74,0,0,0,1.33,3.56,5,5,0,0,0,3.67,1.31,5.45,5.45,0,0,0,2.19-.4,4.31,4.31,0,0,0,1.54-1.09,4.89,4.89,0,0,0,.92-1.6A5.84,5.84,0,0,0,180.16,580.9Z" transform="translate(-37.12 -72.71)"/><path class="cls-2" d="M215.34,574.61c0,.8,0,1.45-.06,2a6.45,6.45,0,0,1-.2,1.19,1.17,1.17,0,0,1-.35.59.88.88,0,0,1-.55.17,1.77,1.77,0,0,1-.59-.12l-.75-.24a8.43,8.43,0,0,0-.91-.25,4.61,4.61,0,0,0-1.09-.12,3.83,3.83,0,0,0-1.39.28A6,6,0,0,0,208,579a10.75,10.75,0,0,0-1.56,1.59,24.54,24.54,0,0,0-1.73,2.45v18.4a.91.91,0,0,1-.2.58,1.41,1.41,0,0,1-.68.41,5.55,5.55,0,0,1-1.28.25,18.31,18.31,0,0,1-2,.09,18.51,18.51,0,0,1-2-.09,5.67,5.67,0,0,1-1.28-.25,1.46,1.46,0,0,1-.68-.41.9.9,0,0,1-.19-.58V571.87a1,1,0,0,1,.16-.58,1.19,1.19,0,0,1,.6-.42,4.41,4.41,0,0,1,1.11-.24,13.28,13.28,0,0,1,1.7-.09,13.92,13.92,0,0,1,1.75.09,3.79,3.79,0,0,1,1.08.24,1.22,1.22,0,0,1,.55.42,1,1,0,0,1,.16.58v3.67a23.19,23.19,0,0,1,2.19-2.73,12,12,0,0,1,1.95-1.71,6.19,6.19,0,0,1,1.85-.87,7,7,0,0,1,1.86-.25c.28,0,.59,0,.92,0a9.94,9.94,0,0,1,1,.16,7.52,7.52,0,0,1,.93.27,2,2,0,0,1,.58.31,1.14,1.14,0,0,1,.26.37,2.84,2.84,0,0,1,.15.54,8.67,8.67,0,0,1,.1,1.05C215.33,573.19,215.34,573.82,215.34,574.61Z" transform="translate(-37.12 -72.71)"/><path class="cls-2" d="M229.44,561.87q0,2.52-1,3.48c-.69.64-2,.95-3.81.95s-3.14-.3-3.79-.92a4.53,4.53,0,0,1-1-3.34,4.81,4.81,0,0,1,1-3.5c.68-.65,2-1,3.83-1s3.11.31,3.77.94A4.56,4.56,0,0,1,229.44,561.87Zm-.63,39.52a.85.85,0,0,1-.2.58,1.38,1.38,0,0,1-.67.41,5.67,5.67,0,0,1-1.28.25,22.71,22.71,0,0,1-4,0,5.56,5.56,0,0,1-1.27-.25,1.41,1.41,0,0,1-.68-.41.91.91,0,0,1-.2-.58V571.93a.93.93,0,0,1,.2-.58,1.59,1.59,0,0,1,.68-.43,5.94,5.94,0,0,1,1.27-.28,20.45,20.45,0,0,1,4,0,6,6,0,0,1,1.28.28,1.55,1.55,0,0,1,.67.43.87.87,0,0,1,.2.58Z" transform="translate(-37.12 -72.71)"/><path class="cls-2" d="M298,600.3a3.65,3.65,0,0,1-.54,1.27,2.09,2.09,0,0,1-1,.73,6.73,6.73,0,0,1-1.79.33c-.73.06-1.66.09-2.78.09s-2.27,0-3-.09a6.44,6.44,0,0,1-1.81-.33,1.82,1.82,0,0,1-1-.73,4.14,4.14,0,0,1-.46-1.27l-6.85-27.14h-.07l-6.48,27.14a4.12,4.12,0,0,1-.47,1.24,1.88,1.88,0,0,1-.94.74,5.66,5.66,0,0,1-1.75.35c-.74.06-1.72.09-2.93.09s-2.3,0-3.07-.09a6.29,6.29,0,0,1-1.8-.33,1.82,1.82,0,0,1-1-.73,4.66,4.66,0,0,1-.5-1.27l-9.73-37.37a10.12,10.12,0,0,1-.33-1.87,1.25,1.25,0,0,1,.38-1,2.36,2.36,0,0,1,1.36-.45c.63-.06,1.51-.08,2.63-.08s1.86,0,2.47,0a4.63,4.63,0,0,1,1.37.23,1.1,1.1,0,0,1,.63.53,3.51,3.51,0,0,1,.26,1l7.52,32.81h0l7.81-32.57a3.63,3.63,0,0,1,.35-1,1.41,1.41,0,0,1,.73-.61,4.83,4.83,0,0,1,1.41-.3c.59-.06,1.38-.08,2.38-.08s1.9,0,2.53.06a5.08,5.08,0,0,1,1.46.28,1.49,1.49,0,0,1,.74.62,3.51,3.51,0,0,1,.37,1.06l8.07,32.57h.07l7.51-32.71a4.69,4.69,0,0,1,.27-.91,1.2,1.2,0,0,1,.62-.59,4.23,4.23,0,0,1,1.33-.3c.57-.06,1.38-.08,2.41-.08a22.33,22.33,0,0,1,2.27.08,1.89,1.89,0,0,1,1.18.45,1.29,1.29,0,0,1,.31,1.07,11.9,11.9,0,0,1-.35,1.94Z" transform="translate(-37.12 -72.71)"/><path class="cls-2" d="M338.74,585.77a3.24,3.24,0,0,1-.68,2.25,2.45,2.45,0,0,1-1.87.73h-18a12.12,12.12,0,0,0,.44,3.42,6.48,6.48,0,0,0,1.43,2.62,6.27,6.27,0,0,0,2.51,1.64,10.93,10.93,0,0,0,3.69.56,21.61,21.61,0,0,0,3.84-.31A28.63,28.63,0,0,0,333,596c.81-.25,1.48-.49,2-.7a3.69,3.69,0,0,1,1.29-.31.91.91,0,0,1,.49.12.74.74,0,0,1,.33.41,2.91,2.91,0,0,1,.19.84c0,.37.05.83.05,1.38s0,.9,0,1.24a6.17,6.17,0,0,1-.1.87,2,2,0,0,1-.2.62,2.36,2.36,0,0,1-.34.48,4.44,4.44,0,0,1-1.18.63,18.55,18.55,0,0,1-2.45.77,32.22,32.22,0,0,1-3.41.67,29.35,29.35,0,0,1-4.1.28,21.45,21.45,0,0,1-6.9-1,12.16,12.16,0,0,1-4.95-3,12.51,12.51,0,0,1-3-5.09,24,24,0,0,1-1-7.22,22.75,22.75,0,0,1,1-7.1,14.62,14.62,0,0,1,3-5.36,12.7,12.7,0,0,1,4.75-3.36,18.31,18.31,0,0,1,12.64-.07,11.54,11.54,0,0,1,4.32,3,12.28,12.28,0,0,1,2.48,4.59,19.88,19.88,0,0,1,.8,5.75Zm-8.08-2.39a8.52,8.52,0,0,0-1.41-5.51,5.44,5.44,0,0,0-4.65-2,6,6,0,0,0-2.76.6,5.54,5.54,0,0,0-1.95,1.6,7.24,7.24,0,0,0-1.19,2.39,11.43,11.43,0,0,0-.48,2.92Z" transform="translate(-37.12 -72.71)"/><path class="cls-2" d="M365.58,599.11a10.84,10.84,0,0,1-.1,1.63,4.26,4.26,0,0,1-.26,1.08,1.09,1.09,0,0,1-.43.55,1.21,1.21,0,0,1-.6.15h-19.3a1.66,1.66,0,0,1-1.37-.6A3.14,3.14,0,0,1,343,600v-1.53c0-.39,0-.75,0-1.07a4.17,4.17,0,0,1,.2-.93,5.49,5.49,0,0,1,.4-.91,9.12,9.12,0,0,1,.64-1l11.06-17.08H344.93c-.42,0-.76-.27-1-.8a6.18,6.18,0,0,1-.38-2.55,12,12,0,0,1,.08-1.6,3.78,3.78,0,0,1,.25-1,1.08,1.08,0,0,1,1.06-.71h18a2.62,2.62,0,0,1,.79.1,1.2,1.2,0,0,1,.55.36,2,2,0,0,1,.33.73,5.37,5.37,0,0,1,.11,1.16v1.62a10.18,10.18,0,0,1-.06,1.18,7.23,7.23,0,0,1-.2,1,5.2,5.2,0,0,1-.38.93c-.17.31-.36.64-.58,1l-11,17.05h11.65a1.18,1.18,0,0,1,.56.13,1.06,1.06,0,0,1,.45.5,3.35,3.35,0,0,1,.28,1A10.55,10.55,0,0,1,365.58,599.11Z" transform="translate(-37.12 -72.71)"/><path class="cls-2" d="M397.89,585.77a3.24,3.24,0,0,1-.68,2.25,2.45,2.45,0,0,1-1.87.73h-18a12.1,12.1,0,0,0,.45,3.42,6.48,6.48,0,0,0,1.43,2.62,6.2,6.2,0,0,0,2.51,1.64,10.93,10.93,0,0,0,3.69.56,21.61,21.61,0,0,0,3.84-.31,28.63,28.63,0,0,0,2.86-.7c.81-.25,1.48-.49,2-.7a3.78,3.78,0,0,1,1.3-.31.91.91,0,0,1,.49.12.74.74,0,0,1,.33.41,2.91,2.91,0,0,1,.19.84c0,.37.05.83.05,1.38s0,.9,0,1.24a6.17,6.17,0,0,1-.1.87,2,2,0,0,1-.2.62,2.36,2.36,0,0,1-.34.48,4.44,4.44,0,0,1-1.18.63,18.55,18.55,0,0,1-2.45.77,32.22,32.22,0,0,1-3.41.67,29.35,29.35,0,0,1-4.1.28,21.45,21.45,0,0,1-6.9-1,12.16,12.16,0,0,1-4.95-3,12.4,12.4,0,0,1-3-5.09,24,24,0,0,1-1-7.22,22.75,22.75,0,0,1,1-7.1,14.74,14.74,0,0,1,3-5.36,12.81,12.81,0,0,1,4.76-3.36,18.31,18.31,0,0,1,12.64-.07,11.54,11.54,0,0,1,4.32,3,12.28,12.28,0,0,1,2.48,4.59,19.88,19.88,0,0,1,.8,5.75Zm-8.08-2.39a8.52,8.52,0,0,0-1.41-5.51,5.44,5.44,0,0,0-4.65-2,6,6,0,0,0-2.76.6,5.46,5.46,0,0,0-1.95,1.6,7.24,7.24,0,0,0-1.19,2.39,11.89,11.89,0,0,0-.49,2.92Z" transform="translate(-37.12 -72.71)"/><path class="cls-2" d="M425.52,593.05a9.86,9.86,0,0,1-.94,4.43,9,9,0,0,1-2.66,3.22,12.08,12.08,0,0,1-4.07,1.93,19.25,19.25,0,0,1-5.1.65,18.82,18.82,0,0,1-3.16-.25,20,20,0,0,1-2.7-.63,12.93,12.93,0,0,1-2-.78,4.66,4.66,0,0,1-1.15-.74,2.24,2.24,0,0,1-.57-1.09,9.26,9.26,0,0,1-.2-2.2,12.53,12.53,0,0,1,.07-1.54,3.62,3.62,0,0,1,.2-.93.86.86,0,0,1,.33-.46.94.94,0,0,1,.49-.12,2.49,2.49,0,0,1,1.08.41c.47.28,1.06.58,1.77.91a19.56,19.56,0,0,0,2.47.93,10.8,10.8,0,0,0,3.19.43,8.17,8.17,0,0,0,2-.23,5.14,5.14,0,0,0,1.52-.66,2.77,2.77,0,0,0,1-1.1,3.34,3.34,0,0,0,.33-1.52,2.5,2.5,0,0,0-.61-1.7,5.35,5.35,0,0,0-1.62-1.24,17.49,17.49,0,0,0-2.28-1c-.85-.31-1.72-.65-2.62-1a26.33,26.33,0,0,1-2.61-1.29,10.47,10.47,0,0,1-2.29-1.79,8.3,8.3,0,0,1-1.62-2.55,9.32,9.32,0,0,1-.61-3.57,8.93,8.93,0,0,1,.83-3.89,8.42,8.42,0,0,1,2.38-3,11.42,11.42,0,0,1,3.79-2,17,17,0,0,1,5-.69,18.24,18.24,0,0,1,2.7.2,21.39,21.39,0,0,1,2.37.49,12.06,12.06,0,0,1,1.79.65,5.65,5.65,0,0,1,1,.6,1.5,1.5,0,0,1,.44.49,2,2,0,0,1,.2.6,7.13,7.13,0,0,1,.12.86c0,.34.05.77.05,1.27s0,1.09-.05,1.46a3.42,3.42,0,0,1-.17.89.79.79,0,0,1-.31.45.88.88,0,0,1-.46.12,2.31,2.31,0,0,1-.93-.35c-.42-.23-.94-.48-1.57-.75a19.22,19.22,0,0,0-2.19-.74,10.53,10.53,0,0,0-2.83-.35,7.45,7.45,0,0,0-1.95.23,3.85,3.85,0,0,0-1.36.67,2.7,2.7,0,0,0-.79,1A2.91,2.91,0,0,0,411,579a2.49,2.49,0,0,0,.63,1.73,5.72,5.72,0,0,0,1.66,1.22,17.74,17.74,0,0,0,2.33,1c.87.31,1.76.65,2.65,1a25.7,25.7,0,0,1,2.65,1.28,9.71,9.71,0,0,1,2.33,1.79,8.09,8.09,0,0,1,1.65,2.53A8.81,8.81,0,0,1,425.52,593.05Z" transform="translate(-37.12 -72.71)"/><path class="cls-2" d="M460,601.39a.85.85,0,0,1-.2.58,1.39,1.39,0,0,1-.66.41,5.34,5.34,0,0,1-1.27.25,22.71,22.71,0,0,1-4,0,5.44,5.44,0,0,1-1.28-.25,1.39,1.39,0,0,1-.66-.41.91.91,0,0,1-.2-.58V584.54a14.16,14.16,0,0,0-.31-3.37,6.51,6.51,0,0,0-.91-2.1,4,4,0,0,0-1.54-1.36,4.79,4.79,0,0,0-2.2-.48,5.53,5.53,0,0,0-3.21,1.16,17.24,17.24,0,0,0-3.38,3.37v19.63a.85.85,0,0,1-.2.58,1.41,1.41,0,0,1-.68.41,5.56,5.56,0,0,1-1.27.25,22.71,22.71,0,0,1-4,0,5.56,5.56,0,0,1-1.27-.25A1.41,1.41,0,0,1,432,602a.91.91,0,0,1-.2-.58V557.87a1,1,0,0,1,.2-.6,1.44,1.44,0,0,1,.68-.45,5.94,5.94,0,0,1,1.27-.28,20.45,20.45,0,0,1,4,0,5.94,5.94,0,0,1,1.27.28,1.44,1.44,0,0,1,.68.45.92.92,0,0,1,.2.6v16.31a16.18,16.18,0,0,1,4.39-3.16,11,11,0,0,1,4.65-1,11.71,11.71,0,0,1,5.08,1,8.79,8.79,0,0,1,3.34,2.72,11.23,11.23,0,0,1,1.84,4,24.07,24.07,0,0,1,.56,5.58Z" transform="translate(-37.12 -72.71)"/><path class="cls-2" d="M493.31,601.49a.89.89,0,0,1-.33.73,2.27,2.27,0,0,1-1,.38,19,19,0,0,1-4.27,0,1.88,1.88,0,0,1-1-.38,1,1,0,0,1-.28-.73v-2.35a13.55,13.55,0,0,1-4.16,3.05,12.16,12.16,0,0,1-5.18,1.09,14.79,14.79,0,0,1-4.32-.61,9.88,9.88,0,0,1-3.41-1.82,8.25,8.25,0,0,1-2.23-3,10.17,10.17,0,0,1-.79-4.17,9.5,9.5,0,0,1,1-4.49,8.32,8.32,0,0,1,3-3.14,14.92,14.92,0,0,1,5-1.84,36.15,36.15,0,0,1,6.92-.59h2.88v-1.79a9.2,9.2,0,0,0-.29-2.43,3.93,3.93,0,0,0-.92-1.74,3.8,3.8,0,0,0-1.72-1,9.26,9.26,0,0,0-2.67-.33,13.61,13.61,0,0,0-3.72.47,21.12,21.12,0,0,0-2.9,1c-.84.38-1.54.72-2.1,1a3,3,0,0,1-1.37.46,1,1,0,0,1-.65-.23,1.73,1.73,0,0,1-.46-.66,4.38,4.38,0,0,1-.28-1.06,8.48,8.48,0,0,1-.1-1.39,6.27,6.27,0,0,1,.16-1.62,2.48,2.48,0,0,1,.63-1.08,6.33,6.33,0,0,1,1.62-1.06,20,20,0,0,1,2.72-1.08,25.55,25.55,0,0,1,3.39-.81,25.05,25.05,0,0,1,9.73.37,10.07,10.07,0,0,1,4.06,2.08,8.06,8.06,0,0,1,2.31,3.63,16.79,16.79,0,0,1,.73,5.26Zm-8.17-12.64H482a16.92,16.92,0,0,0-3.44.29,6.54,6.54,0,0,0-2.32.9,3.73,3.73,0,0,0-1.31,1.44,4.28,4.28,0,0,0-.41,1.93,3.75,3.75,0,0,0,1.17,2.92,4.74,4.74,0,0,0,3.26,1.06,6.08,6.08,0,0,0,3.23-.9,13.56,13.56,0,0,0,3-2.61Z" transform="translate(-37.12 -72.71)"/></svg>